<?xml version="1.0" encoding="UTF-8" standalone="no"?>
<svg
   xmlns:dc="http://purl.org/dc/elements/1.1/"
   xmlns:cc="http://creativecommons.org/ns#"
   xmlns:rdf="http://www.w3.org/1999/02/22-rdf-syntax-ns#"
   xmlns:svg="http://www.w3.org/2000/svg"
   xmlns="http://www.w3.org/2000/svg"
   style="overflow:visible"
   xml:space="preserve"
   enable-background="new 100 150 525 600"
   overflow="visible"
   viewBox="100 150 538.58824 319.85092"
   height="239.88818"
   width="436"
   id="Pentomino_Naming"
   version="1.2"><metadata
     id="metadata369"><rdf:RDF><cc:Work
         rdf:about=""><dc:format>image/svg+xml</dc:format><dc:type
           rdf:resource="http://purl.org/dc/dcmitype/StillImage" /><dc:title></dc:title></cc:Work></rdf:RDF></metadata><defs
     id="defs367" /><g
     transform="translate(6.3039194,3.1666671)"
     id="Common_Naming"><g
       style="fill:#ddbb99;stroke:#000000;stroke-width:0.25"
       id="F_1"><rect
         id="rect2"
         height="25"
         width="25"
         y="225"
         x="125" /><rect
         id="rect4"
         height="25"
         width="25"
         y="250"
         x="125" /><rect
         id="rect6"
         height="25"
         width="25"
         y="275"
         x="125" /><rect
         id="rect8"
         height="25"
         width="25"
         y="225"
         x="150" /><rect
         id="rect10"
         height="25"
         width="25"
         y="250"
         x="100" /><polygon
         style="fill:none;stroke-width:3"
         id="polygon12"
         points="150,300 125,300 125,275 100,275 100,250 125,250 125,225 175,225 175,250 150,250 " /><text
         style="font-size:20px;fill:#000000"
         id="text14"
         y="320"
         x="132"
         font-size="20">F</text>
</g><g
       style="fill:#eeaaaa;stroke:#000000;stroke-width:0.25"
       id="I_1"><rect
         id="rect17"
         height="25"
         width="25"
         y="275"
         x="200" /><rect
         id="rect19"
         height="25"
         width="25"
         y="250"
         x="200" /><rect
         id="rect21"
         height="25"
         width="25"
         y="225"
         x="200" /><rect
         id="rect23"
         height="25"
         width="25"
         y="200"
         x="200" /><rect
         id="rect25"
         height="25"
         width="25"
         y="175"
         x="200" /><rect
         style="fill:none;stroke-width:3"
         id="rect27"
         height="125"
         width="25"
         y="175"
         x="200" /><text
         style="font-size:20px;fill:#000000"
         id="text29"
         y="320"
         x="208"
         font-size="20">I</text>
</g><g
       style="fill:#cccc88;stroke:#000000;stroke-width:0.25"
       id="L_1"><rect
         id="rect32"
         height="25"
         width="25"
         y="200"
         x="250" /><rect
         id="rect34"
         height="25"
         width="25"
         y="225"
         x="250" /><rect
         id="rect36"
         height="25"
         width="25"
         y="250"
         x="250" /><rect
         id="rect38"
         height="25"
         width="25"
         y="275"
         x="250" /><rect
         id="rect40"
         height="25"
         width="25"
         y="275"
         x="275" /><polygon
         style="fill:none;stroke-width:3"
         id="polygon42"
         points="300,300 250,300 250,200 275,200 275,275 300,275 " /><text
         style="font-size:20px;fill:#000000"
         id="text44"
         y="320"
         x="265"
         font-size="20">L</text>
</g><g
       style="fill:#aaeeaa;stroke:#000000;stroke-width:0.25"
       id="N_1"><rect
         id="rect47"
         height="25"
         width="25"
         transform="matrix(0.7071,0.7071,-0.7071,0.7071,290.401,-216.7346)"
         y="229.7"
         x="394.29999" /><rect
         id="rect49"
         height="25"
         width="25"
         transform="matrix(0.7071,0.7071,-0.7071,0.7071,297.7234,-199.0568)"
         y="247.39999"
         x="376.60001" /><rect
         id="rect51"
         height="25"
         width="25"
         transform="matrix(0.7071,0.7071,-0.7071,0.7071,305.0457,-181.3791)"
         y="265"
         x="359" /><rect
         id="rect53"
         height="25"
         width="25"
         transform="matrix(0.7071,0.7071,-0.7071,0.7071,287.368,-174.0567)"
         y="247.39999"
         x="341.29999" /><rect
         id="rect55"
         height="25"
         width="25"
         transform="matrix(0.7071,0.7071,-0.7071,0.7071,294.6903,-156.379)"
         y="265"
         x="323.60001" /><polygon
         style="fill:none;stroke-width:3"
         id="polygon57"
         points="318.4,277.5 336.1,295.2 353.8,277.5 371.5,295.2 425,242.2 406.8,225 371.5,259.9 353.8,242.2 " /><text
         style="font-size:20px;fill:#000000"
         id="text59"
         y="320"
         x="350"
         font-size="20">N</text>
</g><g
       style="fill:#bbdd99;stroke:#000000;stroke-width:0.25"
       id="P_1"><rect
         id="rect62"
         height="25"
         width="25"
         y="225"
         x="450" /><rect
         id="rect64"
         height="25"
         width="25"
         y="250"
         x="450" /><rect
         id="rect66"
         height="25"
         width="25"
         y="275"
         x="450" /><rect
         id="rect68"
         height="25"
         width="25"
         y="225"
         x="475" /><rect
         id="rect70"
         height="25"
         width="25"
         y="250"
         x="475" /><polygon
         style="fill:none;stroke-width:3"
         id="polygon72"
         points="475,300 450,300 450,225 500,225 500,275 475,275 " /><text
         style="font-size:20px;fill:#000000"
         id="text74"
         y="320"
         x="456"
         font-size="20">P</text>
</g><g
       style="fill:#99ddbb;stroke:#000000;stroke-width:0.25"
       id="T_1"><rect
         id="rect77"
         height="25"
         width="25"
         y="225"
         x="525" /><rect
         id="rect79"
         height="25"
         width="25"
         y="225"
         x="550" /><rect
         id="rect81"
         height="25"
         width="25"
         y="225"
         x="575" /><rect
         id="rect83"
         height="25"
         width="25"
         y="250"
         x="550" /><rect
         id="rect85"
         height="25"
         width="25"
         y="275"
         x="550" /><polygon
         style="fill:none;stroke-width:3"
         id="polygon87"
         points="575,300 550,300 550,250 525,250 525,225 600,225 600,250 575,250 " /><text
         style="font-size:20px;fill:#000000"
         id="text89"
         y="320"
         x="557"
         font-size="20">T</text>
</g><g
       style="fill:#88cccc;stroke:#000000;stroke-width:0.25"
       id="U_1"><rect
         id="rect92"
         height="25"
         width="25"
         y="350"
         x="100" /><rect
         id="rect94"
         height="25"
         width="25"
         y="375"
         x="100" /><rect
         id="rect96"
         height="25"
         width="25"
         y="375"
         x="125" /><rect
         id="rect98"
         height="25"
         width="25"
         y="375"
         x="150" /><rect
         id="rect100"
         height="25"
         width="25"
         y="350"
         x="150" /><polygon
         style="fill:none;stroke-width:3"
         id="polygon102"
         points="150,350 175,350 175,400 100,400 100,350 125,350 125,375 150,375 " /><text
         style="font-size:20px;fill:#000000"
         id="text104"
         y="420"
         x="130"
         font-size="20">U</text>
</g><g
       style="fill:#99bbdd;stroke:#000000;stroke-width:0.25"
       id="V_1"><rect
         id="rect107"
         height="25"
         width="25"
         transform="matrix(0.7071,0.7071,-0.7071,0.7071,327.5328,-97.8007)"
         y="334"
         x="269.29999" /><rect
         id="rect109"
         height="25"
         width="25"
         transform="matrix(0.7071,0.7071,-0.7071,0.7071,334.8552,-80.1229)"
         y="351.60001"
         x="251.60001" /><rect
         id="rect111"
         height="25"
         width="25"
         transform="matrix(0.7071,0.7071,-0.7071,0.7071,342.1776,-62.4452)"
         y="369.29999"
         x="234" /><rect
         id="rect113"
         height="25"
         width="25"
         transform="matrix(0.7071,0.7071,-0.7071,0.7071,324.4998,-55.1228)"
         y="351.60001"
         x="216.3" /><rect
         id="rect115"
         height="25"
         width="25"
         transform="matrix(0.7071,0.7071,-0.7071,0.7071,306.8221,-47.8005)"
         y="334"
         x="198.60001" /><polygon
         style="fill:none;stroke-width:3"
         id="polygon117"
         points="193.4,346.5 246.5,400 300,346.5 281.8,328.8 246.5,364.1 211.1,328.8 " /><text
         style="font-size:20px;fill:#000000"
         id="text119"
         y="420"
         x="240"
         font-size="20">V</text>
</g><g
       style="fill:#aaaaee;stroke:#000000;stroke-width:0.25"
       id="W_1"><rect
         id="rect122"
         height="25"
         width="25"
         transform="matrix(-0.7071,0.7071,-0.7071,-0.7071,797.4289,393.6941)"
         y="350"
         x="304.70001" /><rect
         id="rect124"
         height="25"
         width="25"
         transform="matrix(-0.7071,0.7071,-0.7071,-0.7071,840.1067,411.3719)"
         y="367.20001"
         x="322.39999" /><rect
         id="rect126"
         height="25"
         width="25"
         transform="matrix(-0.7071,0.7071,-0.7071,-0.7071,857.7844,368.694)"
         y="350"
         x="340" /><rect
         id="rect128"
         height="25"
         width="25"
         transform="matrix(-0.7071,0.7071,-0.7071,-0.7071,900.4623,386.3718)"
         y="367.20001"
         x="357.70001" /><rect
         id="rect130"
         height="25"
         width="25"
         transform="matrix(-0.7071,0.7071,-0.7071,-0.7071,918.14,343.6939)"
         y="350"
         x="375.39999" /><polygon
         style="fill:none;stroke-width:3"
         id="polygon132"
         points="387.9,344.3 370.2,362 352.5,344.3 334.9,362 317.2,344.3 300,362 334.9,397.4 352.5,379.7 370.2,397.4 405.6,362 " /><text
         style="font-size:20px;fill:#000000"
         id="text134"
         y="420"
         x="342"
         font-size="20">W</text>
</g><g
       style="fill:#bb99dd;stroke:#000000;stroke-width:0.25"
       id="X_1"><rect
         id="rect137"
         height="25"
         width="25"
         transform="matrix(-0.7071,-0.7071,0.7071,-0.7071,534.8553,914.4779)"
         y="334"
         x="444.29999" /><rect
         id="rect139"
         height="25"
         width="25"
         transform="matrix(-0.7071,-0.7071,0.7071,-0.7071,492.1776,932.1556)"
         y="351.60001"
         x="426.60001" /><rect
         id="rect141"
         height="25"
         width="25"
         transform="matrix(-0.7071,-0.7071,0.7071,-0.7071,449.4997,949.8334)"
         y="369.29999"
         x="409" /><rect
         id="rect143"
         height="25"
         width="25"
         transform="matrix(-0.7071,-0.7071,0.7071,-0.7071,474.4998,889.4778)"
         y="334"
         x="409" /><rect
         id="rect145"
         height="25"
         width="25"
         transform="matrix(-0.7071,-0.7071,0.7071,-0.7071,509.8553,974.8335)"
         y="369.29999"
         x="444.29999" /><polygon
         style="fill:none;stroke-width:3"
         id="polygon147"
         points="456.8,400 439.1,381.8 421.5,400 403.8,381.8 421.5,364.1 403.8,346.5 421.5,328.8 439.1,346.5 456.8,328.8 475,346.5 456.8,364.1 475,381.8 " /><text
         style="font-size:20px;fill:#000000"
         id="text149"
         y="420"
         x="431"
         font-size="20">X</text>
</g><g
       style="fill:#cc88cc;stroke:#000000;stroke-width:0.25"
       id="Y_1"><rect
         id="rect152"
         height="25"
         width="25"
         transform="matrix(0.7071,0.7071,-0.7071,0.7071,415.401,-268.5112)"
         y="354.70001"
         x="519.29999" /><rect
         id="rect154"
         height="25"
         width="25"
         transform="matrix(0.7071,0.7071,-0.7071,0.7071,422.7234,-250.8335)"
         y="372.39999"
         x="501.60001" /><rect
         id="rect156"
         height="25"
         width="25"
         transform="matrix(0.7071,0.7071,-0.7071,0.7071,430.0457,-233.1558)"
         y="390"
         x="484" /><rect
         id="rect158"
         height="25"
         width="25"
         transform="matrix(0.7071,0.7071,-0.7071,0.7071,437.3856,-215.4792)"
         y="407.70001"
         x="466.29999" /><rect
         id="rect160"
         height="25"
         width="25"
         transform="matrix(0.7071,0.7071,-0.7071,0.7071,405.0456,-243.5112)"
         y="354.70001"
         x="484" /><polygon
         style="fill:none;stroke-width:3"
         id="polygon162"
         points="496.5,350 514.1,367.2 531.8,350 550,367.2 478.8,437.9 461.1,420.2 496.5,384.9 478.8,367.2 " /><text
         style="font-size:20px;fill:#000000"
         id="text164"
         y="420"
         x="515"
         font-size="20">Y</text>
</g><g
       style="fill:#dd99bb;stroke:#000000;stroke-width:0.25"
       id="Z_1"><rect
         id="rect167"
         height="25"
         width="25"
         y="325"
         x="550" /><rect
         id="rect169"
         height="25"
         width="25"
         y="325"
         x="575" /><rect
         id="rect171"
         height="25"
         width="25"
         y="350"
         x="575" /><rect
         id="rect173"
         height="25"
         width="25"
         y="375"
         x="575" /><rect
         id="rect175"
         height="25"
         width="25"
         y="375"
         x="600" /><polygon
         style="fill:none;stroke-width:3"
         id="polygon177"
         points="625,375 600,375 600,325 550,325 550,350 575,350 575,400 625,400 " /><text
         style="font-size:20px;fill:#000000"
         id="text179"
         y="420"
         x="582"
         font-size="20">Z</text>
</g></g><!-- ====================================================================================================== --></svg>