<?xml version="1.0" encoding="UTF-8" standalone="no"?>
<svg
   xmlns:dc="http://purl.org/dc/elements/1.1/"
   xmlns:cc="http://creativecommons.org/ns#"
   xmlns:rdf="http://www.w3.org/1999/02/22-rdf-syntax-ns#"
   xmlns:svg="http://www.w3.org/2000/svg"
   xmlns="http://www.w3.org/2000/svg"
   xmlns:sodipodi="http://sodipodi.sourceforge.net/DTD/sodipodi-0.dtd"
   xmlns:inkscape="http://www.inkscape.org/namespaces/inkscape"
   height="243.02136"
   version="1.1"
   width="693"
   id="svg712"
   sodipodi:docname="X.svg"
   inkscape:version="0.92.2 (5c3e80d, 2017-08-06)">
  <metadata
     id="metadata716">
    <rdf:RDF>
      <cc:Work
         rdf:about="">
        <dc:format>image/svg+xml</dc:format>
        <dc:type
           rdf:resource="http://purl.org/dc/dcmitype/StillImage" />
        <dc:title></dc:title>
      </cc:Work>
    </rdf:RDF>
  </metadata>
  <sodipodi:namedview
     pagecolor="#ffffff"
     bordercolor="#666666"
     borderopacity="1"
     objecttolerance="10"
     gridtolerance="10"
     guidetolerance="10"
     inkscape:pageopacity="0"
     inkscape:pageshadow="2"
     inkscape:window-width="1440"
     inkscape:window-height="855"
     id="namedview714"
     showgrid="false"
     fit-margin-top="20"
     fit-margin-left="20"
     fit-margin-bottom="20"
     fit-margin-right="20"
     inkscape:zoom="1.4141414"
     inkscape:cx="346.5"
     inkscape:cy="121.51068"
     inkscape:window-x="0"
     inkscape:window-y="23"
     inkscape:window-maximized="0"
     inkscape:current-layer="svg712" />
  <defs
     id="defs2" />
  <g
     id="g238"
     style="stroke:#000000;stroke-width:0.25;stroke-linecap:round"
     transform="translate(16.499985,16.5)">
    <g
       id="g14"
       style="fill:#bb99dd">
      <rect
         height="25"
         width="25"
         x="105"
         y="130"
         id="rect4" />
      <rect
         height="25"
         width="25"
         x="80"
         y="155"
         id="rect6" />
      <rect
         height="25"
         width="25"
         x="105"
         y="155"
         id="rect8" />
      <rect
         height="25"
         width="25"
         x="130"
         y="155"
         id="rect10" />
      <rect
         height="25"
         width="25"
         x="105"
         y="180"
         id="rect12" />
    </g>
    <g
       id="g18"
       style="fill:#ffffff">
      <rect
         height="25"
         width="25"
         x="5"
         y="5"
         id="rect16" />
    </g>
    <g
       id="g22"
       style="fill:#ffffff">
      <rect
         height="25"
         width="25"
         x="30"
         y="5"
         id="rect20" />
    </g>
    <g
       id="g26"
       style="fill:#ffffff">
      <rect
         height="25"
         width="25"
         x="55"
         y="5"
         id="rect24" />
    </g>
    <g
       id="g30"
       style="fill:#ffffff">
      <rect
         height="25"
         width="25"
         x="80"
         y="5"
         id="rect28" />
    </g>
    <g
       id="g34"
       style="fill:#ffffff">
      <rect
         height="25"
         width="25"
         x="105"
         y="5"
         id="rect32" />
    </g>
    <g
       id="g38"
       style="fill:#ffffff">
      <rect
         height="25"
         width="25"
         x="130"
         y="5"
         id="rect36" />
    </g>
    <g
       id="g42"
       style="fill:#ffffff">
      <rect
         height="25"
         width="25"
         x="155"
         y="5"
         id="rect40" />
    </g>
    <g
       id="g46"
       style="fill:#ffffff">
      <rect
         height="25"
         width="25"
         x="180"
         y="5"
         id="rect44" />
    </g>
    <g
       id="g50"
       style="fill:#ffffff">
      <rect
         height="25"
         width="25"
         x="5"
         y="30"
         id="rect48" />
    </g>
    <g
       id="g54"
       style="fill:#ffffff">
      <rect
         height="25"
         width="25"
         x="30"
         y="30"
         id="rect52" />
    </g>
    <g
       id="g58"
       style="fill:#ffffff">
      <rect
         height="25"
         width="25"
         x="55"
         y="30"
         id="rect56" />
    </g>
    <g
       id="g62"
       style="fill:#ffffff">
      <rect
         height="25"
         width="25"
         x="80"
         y="30"
         id="rect60" />
    </g>
    <g
       id="g66"
       style="fill:#ffffff">
      <rect
         height="25"
         width="25"
         x="105"
         y="30"
         id="rect64" />
    </g>
    <g
       id="g70"
       style="fill:#ffffff">
      <rect
         height="25"
         width="25"
         x="130"
         y="30"
         id="rect68" />
    </g>
    <g
       id="g74"
       style="fill:#ffffff">
      <rect
         height="25"
         width="25"
         x="155"
         y="30"
         id="rect72" />
    </g>
    <g
       id="g78"
       style="fill:#ffffff">
      <rect
         height="25"
         width="25"
         x="180"
         y="30"
         id="rect76" />
    </g>
    <g
       id="g82"
       style="fill:#ffffff">
      <rect
         height="25"
         width="25"
         x="5"
         y="55"
         id="rect80" />
    </g>
    <g
       id="g86"
       style="fill:#ffffff">
      <rect
         height="25"
         width="25"
         x="30"
         y="55"
         id="rect84" />
    </g>
    <g
       id="g90"
       style="fill:#ffffff">
      <rect
         height="25"
         width="25"
         x="55"
         y="55"
         id="rect88" />
    </g>
    <g
       id="g94"
       style="fill:#ffffff">
      <rect
         height="25"
         width="25"
         x="80"
         y="55"
         id="rect92" />
    </g>
    <g
       id="g98"
       style="fill:#ffffff">
      <rect
         height="25"
         width="25"
         x="105"
         y="55"
         id="rect96" />
    </g>
    <g
       id="g102"
       style="fill:#ffffff">
      <rect
         height="25"
         width="25"
         x="130"
         y="55"
         id="rect100" />
    </g>
    <g
       id="g106"
       style="fill:#ffffff">
      <rect
         height="25"
         width="25"
         x="155"
         y="55"
         id="rect104" />
    </g>
    <g
       id="g110"
       style="fill:#ffffff">
      <rect
         height="25"
         width="25"
         x="180"
         y="55"
         id="rect108" />
    </g>
    <g
       id="g114"
       style="fill:#ffffff">
      <rect
         height="25"
         width="25"
         x="5"
         y="80"
         id="rect112" />
    </g>
    <g
       id="g118"
       style="fill:#ffffff">
      <rect
         height="25"
         width="25"
         x="30"
         y="80"
         id="rect116" />
    </g>
    <g
       id="g122"
       style="fill:#ffffff">
      <rect
         height="25"
         width="25"
         x="55"
         y="80"
         id="rect120" />
    </g>
    <g
       id="g126"
       style="fill:#ffffff">
      <rect
         height="25"
         width="25"
         x="130"
         y="80"
         id="rect124" />
    </g>
    <g
       id="g130"
       style="fill:#ffffff">
      <rect
         height="25"
         width="25"
         x="155"
         y="80"
         id="rect128" />
    </g>
    <g
       id="g134"
       style="fill:#ffffff">
      <rect
         height="25"
         width="25"
         x="180"
         y="80"
         id="rect132" />
    </g>
    <g
       id="g138"
       style="fill:#ffffff">
      <rect
         height="25"
         width="25"
         x="5"
         y="105"
         id="rect136" />
    </g>
    <g
       id="g142"
       style="fill:#ffffff">
      <rect
         height="25"
         width="25"
         x="30"
         y="105"
         id="rect140" />
    </g>
    <g
       id="g146"
       style="fill:#ffffff">
      <rect
         height="25"
         width="25"
         x="55"
         y="105"
         id="rect144" />
    </g>
    <g
       id="g150"
       style="fill:#ffffff">
      <rect
         height="25"
         width="25"
         x="130"
         y="105"
         id="rect148" />
    </g>
    <g
       id="g154"
       style="fill:#ffffff">
      <rect
         height="25"
         width="25"
         x="155"
         y="105"
         id="rect152" />
    </g>
    <g
       id="g158"
       style="fill:#ffffff">
      <rect
         height="25"
         width="25"
         x="180"
         y="105"
         id="rect156" />
    </g>
    <g
       id="g162"
       style="fill:#ffffff">
      <rect
         height="25"
         width="25"
         x="5"
         y="130"
         id="rect160" />
    </g>
    <g
       id="g166"
       style="fill:#ffffff">
      <rect
         height="25"
         width="25"
         x="30"
         y="130"
         id="rect164" />
    </g>
    <g
       id="g170"
       style="fill:#ffffff">
      <rect
         height="25"
         width="25"
         x="55"
         y="130"
         id="rect168" />
    </g>
    <g
       id="g174"
       style="fill:#ffffff">
      <rect
         height="25"
         width="25"
         x="80"
         y="130"
         id="rect172" />
    </g>
    <g
       id="g178"
       style="fill:#ffffff">
      <rect
         height="25"
         width="25"
         x="130"
         y="130"
         id="rect176" />
    </g>
    <g
       id="g182"
       style="fill:#ffffff">
      <rect
         height="25"
         width="25"
         x="155"
         y="130"
         id="rect180" />
    </g>
    <g
       id="g186"
       style="fill:#ffffff">
      <rect
         height="25"
         width="25"
         x="180"
         y="130"
         id="rect184" />
    </g>
    <g
       id="g190"
       style="fill:#ffffff">
      <rect
         height="25"
         width="25"
         x="5"
         y="155"
         id="rect188" />
    </g>
    <g
       id="g194"
       style="fill:#ffffff">
      <rect
         height="25"
         width="25"
         x="30"
         y="155"
         id="rect192" />
    </g>
    <g
       id="g198"
       style="fill:#ffffff">
      <rect
         height="25"
         width="25"
         x="55"
         y="155"
         id="rect196" />
    </g>
    <g
       id="g202"
       style="fill:#ffffff">
      <rect
         height="25"
         width="25"
         x="155"
         y="155"
         id="rect200" />
    </g>
    <g
       id="g206"
       style="fill:#ffffff">
      <rect
         height="25"
         width="25"
         x="180"
         y="155"
         id="rect204" />
    </g>
    <g
       id="g210"
       style="fill:#ffffff">
      <rect
         height="25"
         width="25"
         x="5"
         y="180"
         id="rect208" />
    </g>
    <g
       id="g214"
       style="fill:#ffffff">
      <rect
         height="25"
         width="25"
         x="30"
         y="180"
         id="rect212" />
    </g>
    <g
       id="g218"
       style="fill:#ffffff">
      <rect
         height="25"
         width="25"
         x="55"
         y="180"
         id="rect216" />
    </g>
    <g
       id="g222"
       style="fill:#ffffff">
      <rect
         height="25"
         width="25"
         x="80"
         y="180"
         id="rect220" />
    </g>
    <g
       id="g226"
       style="fill:#ffffff">
      <rect
         height="25"
         width="25"
         x="130"
         y="180"
         id="rect224" />
    </g>
    <g
       id="g230"
       style="fill:#ffffff">
      <rect
         height="25"
         width="25"
         x="155"
         y="180"
         id="rect228" />
    </g>
    <g
       id="g234"
       style="fill:#ffffff">
      <rect
         height="25"
         width="25"
         x="180"
         y="180"
         id="rect232" />
    </g>
    <path
       d="m 105,130 h 25 m -50,25 h 25 m 25,0 h 25 m -75,25 h 25 m 25,0 h 25 m -50,25 h 25 m -25,-75 v 25 m 25,-25 v 25 m -50,0 v 25 m 75,-25 v 25 m -50,0 v 25 m 25,-25 v 25"
       id="path236"
       inkscape:connector-curvature="0"
       style="stroke-width:3" />
  </g>
  <g
     style="fill:#bb99dd;stroke:#000000;stroke-width:0.25;stroke-linecap:round"
     id="g250"
     transform="translate(16.499985,16.5)">
    <rect
       id="rect240"
       y="130"
       x="355"
       width="25"
       height="25" />
    <rect
       id="rect242"
       y="155"
       x="330"
       width="25"
       height="25" />
    <rect
       id="rect244"
       y="155"
       x="355"
       width="25"
       height="25" />
    <rect
       id="rect246"
       y="155"
       x="380"
       width="25"
       height="25" />
    <rect
       id="rect248"
       y="180"
       x="355"
       width="25"
       height="25" />
  </g>
  <g
     style="fill:#ffffff;stroke:#000000;stroke-width:0.25;stroke-linecap:round"
     id="g254"
     transform="translate(16.499985,16.5)">
    <rect
       id="rect252"
       y="5"
       x="230"
       width="25"
       height="25" />
  </g>
  <g
     style="fill:#ffffff;stroke:#000000;stroke-width:0.25;stroke-linecap:round"
     id="g258"
     transform="translate(16.499985,16.5)">
    <rect
       id="rect256"
       y="5"
       x="255"
       width="25"
       height="25" />
  </g>
  <g
     style="fill:#ffffff;stroke:#000000;stroke-width:0.25;stroke-linecap:round"
     id="g262"
     transform="translate(16.499985,16.5)">
    <rect
       id="rect260"
       y="5"
       x="280"
       width="25"
       height="25" />
  </g>
  <g
     style="fill:#ffffff;stroke:#000000;stroke-width:0.25;stroke-linecap:round"
     id="g266"
     transform="translate(16.499985,16.5)">
    <rect
       id="rect264"
       y="5"
       x="305"
       width="25"
       height="25" />
  </g>
  <g
     style="fill:#ffffff;stroke:#000000;stroke-width:0.25;stroke-linecap:round"
     id="g270"
     transform="translate(16.499985,16.5)">
    <rect
       id="rect268"
       y="5"
       x="330"
       width="25"
       height="25" />
  </g>
  <g
     style="fill:#ffffff;stroke:#000000;stroke-width:0.25;stroke-linecap:round"
     id="g274"
     transform="translate(16.499985,16.5)">
    <rect
       id="rect272"
       y="5"
       x="355"
       width="25"
       height="25" />
  </g>
  <g
     style="fill:#ffffff;stroke:#000000;stroke-width:0.25;stroke-linecap:round"
     id="g278"
     transform="translate(16.499985,16.5)">
    <rect
       id="rect276"
       y="5"
       x="380"
       width="25"
       height="25" />
  </g>
  <g
     style="fill:#ffffff;stroke:#000000;stroke-width:0.25;stroke-linecap:round"
     id="g282"
     transform="translate(16.499985,16.5)">
    <rect
       id="rect280"
       y="5"
       x="405"
       width="25"
       height="25" />
  </g>
  <g
     style="fill:#ffffff;stroke:#000000;stroke-width:0.25;stroke-linecap:round"
     id="g286"
     transform="translate(16.499985,16.5)">
    <rect
       id="rect284"
       y="30"
       x="230"
       width="25"
       height="25" />
  </g>
  <g
     style="fill:#ffffff;stroke:#000000;stroke-width:0.25;stroke-linecap:round"
     id="g290"
     transform="translate(16.499985,16.5)">
    <rect
       id="rect288"
       y="30"
       x="255"
       width="25"
       height="25" />
  </g>
  <g
     style="fill:#ffffff;stroke:#000000;stroke-width:0.25;stroke-linecap:round"
     id="g294"
     transform="translate(16.499985,16.5)">
    <rect
       id="rect292"
       y="30"
       x="280"
       width="25"
       height="25" />
  </g>
  <g
     style="fill:#ffffff;stroke:#000000;stroke-width:0.25;stroke-linecap:round"
     id="g298"
     transform="translate(16.499985,16.5)">
    <rect
       id="rect296"
       y="30"
       x="305"
       width="25"
       height="25" />
  </g>
  <g
     style="fill:#ffffff;stroke:#000000;stroke-width:0.25;stroke-linecap:round"
     id="g302"
     transform="translate(16.499985,16.5)">
    <rect
       id="rect300"
       y="30"
       x="330"
       width="25"
       height="25" />
  </g>
  <g
     style="fill:#ffffff;stroke:#000000;stroke-width:0.25;stroke-linecap:round"
     id="g306"
     transform="translate(16.499985,16.5)">
    <rect
       id="rect304"
       y="30"
       x="355"
       width="25"
       height="25" />
  </g>
  <g
     style="fill:#ffffff;stroke:#000000;stroke-width:0.25;stroke-linecap:round"
     id="g310"
     transform="translate(16.499985,16.5)">
    <rect
       id="rect308"
       y="30"
       x="380"
       width="25"
       height="25" />
  </g>
  <g
     style="fill:#ffffff;stroke:#000000;stroke-width:0.25;stroke-linecap:round"
     id="g314"
     transform="translate(16.499985,16.5)">
    <rect
       id="rect312"
       y="30"
       x="405"
       width="25"
       height="25" />
  </g>
  <g
     style="fill:#ffffff;stroke:#000000;stroke-width:0.25;stroke-linecap:round"
     id="g318"
     transform="translate(16.499985,16.5)">
    <rect
       id="rect316"
       y="55"
       x="230"
       width="25"
       height="25" />
  </g>
  <g
     style="fill:#ffffff;stroke:#000000;stroke-width:0.25;stroke-linecap:round"
     id="g322"
     transform="translate(16.499985,16.5)">
    <rect
       id="rect320"
       y="55"
       x="255"
       width="25"
       height="25" />
  </g>
  <g
     style="fill:#ffffff;stroke:#000000;stroke-width:0.25;stroke-linecap:round"
     id="g326"
     transform="translate(16.499985,16.5)">
    <rect
       id="rect324"
       y="55"
       x="280"
       width="25"
       height="25" />
  </g>
  <g
     style="fill:#ffffff;stroke:#000000;stroke-width:0.25;stroke-linecap:round"
     id="g330"
     transform="translate(16.499985,16.5)">
    <rect
       id="rect328"
       y="55"
       x="305"
       width="25"
       height="25" />
  </g>
  <g
     style="fill:#ffffff;stroke:#000000;stroke-width:0.25;stroke-linecap:round"
     id="g334"
     transform="translate(16.499985,16.5)">
    <rect
       id="rect332"
       y="55"
       x="330"
       width="25"
       height="25" />
  </g>
  <g
     style="fill:#ffffff;stroke:#000000;stroke-width:0.25;stroke-linecap:round"
     id="g338"
     transform="translate(16.499985,16.5)">
    <rect
       id="rect336"
       y="55"
       x="355"
       width="25"
       height="25" />
  </g>
  <g
     style="fill:#ffffff;stroke:#000000;stroke-width:0.25;stroke-linecap:round"
     id="g342"
     transform="translate(16.499985,16.5)">
    <rect
       id="rect340"
       y="55"
       x="380"
       width="25"
       height="25" />
  </g>
  <g
     style="fill:#ffffff;stroke:#000000;stroke-width:0.25;stroke-linecap:round"
     id="g346"
     transform="translate(16.499985,16.5)">
    <rect
       id="rect344"
       y="55"
       x="405"
       width="25"
       height="25" />
  </g>
  <g
     style="fill:#ffffff;stroke:#000000;stroke-width:0.25;stroke-linecap:round"
     id="g350"
     transform="translate(16.499985,16.5)">
    <rect
       id="rect348"
       y="80"
       x="230"
       width="25"
       height="25" />
  </g>
  <g
     style="fill:#ffffff;stroke:#000000;stroke-width:0.25;stroke-linecap:round"
     id="g354"
     transform="translate(16.499985,16.5)">
    <rect
       id="rect352"
       y="80"
       x="255"
       width="25"
       height="25" />
  </g>
  <g
     style="fill:#ffffff;stroke:#000000;stroke-width:0.25;stroke-linecap:round"
     id="g358"
     transform="translate(16.499985,16.5)">
    <rect
       id="rect356"
       y="80"
       x="280"
       width="25"
       height="25" />
  </g>
  <g
     style="fill:#ffffff;stroke:#000000;stroke-width:0.25;stroke-linecap:round"
     id="g362"
     transform="translate(16.499985,16.5)">
    <rect
       id="rect360"
       y="80"
       x="355"
       width="25"
       height="25" />
  </g>
  <g
     style="fill:#ffffff;stroke:#000000;stroke-width:0.25;stroke-linecap:round"
     id="g366"
     transform="translate(16.499985,16.5)">
    <rect
       id="rect364"
       y="80"
       x="380"
       width="25"
       height="25" />
  </g>
  <g
     style="fill:#ffffff;stroke:#000000;stroke-width:0.25;stroke-linecap:round"
     id="g370"
     transform="translate(16.499985,16.5)">
    <rect
       id="rect368"
       y="80"
       x="405"
       width="25"
       height="25" />
  </g>
  <g
     style="fill:#ffffff;stroke:#000000;stroke-width:0.25;stroke-linecap:round"
     id="g374"
     transform="translate(16.499985,16.5)">
    <rect
       id="rect372"
       y="105"
       x="230"
       width="25"
       height="25" />
  </g>
  <g
     style="fill:#ffffff;stroke:#000000;stroke-width:0.25;stroke-linecap:round"
     id="g378"
     transform="translate(16.499985,16.5)">
    <rect
       id="rect376"
       y="105"
       x="255"
       width="25"
       height="25" />
  </g>
  <g
     style="fill:#ffffff;stroke:#000000;stroke-width:0.25;stroke-linecap:round"
     id="g382"
     transform="translate(16.499985,16.5)">
    <rect
       id="rect380"
       y="105"
       x="280"
       width="25"
       height="25" />
  </g>
  <g
     style="fill:#ffffff;stroke:#000000;stroke-width:0.25;stroke-linecap:round"
     id="g386"
     transform="translate(16.499985,16.5)">
    <rect
       id="rect384"
       y="105"
       x="355"
       width="25"
       height="25" />
  </g>
  <g
     style="fill:#ffffff;stroke:#000000;stroke-width:0.25;stroke-linecap:round"
     id="g390"
     transform="translate(16.499985,16.5)">
    <rect
       id="rect388"
       y="105"
       x="380"
       width="25"
       height="25" />
  </g>
  <g
     style="fill:#ffffff;stroke:#000000;stroke-width:0.25;stroke-linecap:round"
     id="g394"
     transform="translate(16.499985,16.5)">
    <rect
       id="rect392"
       y="105"
       x="405"
       width="25"
       height="25" />
  </g>
  <g
     style="fill:#ffffff;stroke:#000000;stroke-width:0.25;stroke-linecap:round"
     id="g398"
     transform="translate(16.499985,16.5)">
    <rect
       id="rect396"
       y="130"
       x="230"
       width="25"
       height="25" />
  </g>
  <g
     style="fill:#ffffff;stroke:#000000;stroke-width:0.25;stroke-linecap:round"
     id="g402"
     transform="translate(16.499985,16.5)">
    <rect
       id="rect400"
       y="130"
       x="255"
       width="25"
       height="25" />
  </g>
  <g
     style="fill:#ffffff;stroke:#000000;stroke-width:0.25;stroke-linecap:round"
     id="g406"
     transform="translate(16.499985,16.5)">
    <rect
       id="rect404"
       y="130"
       x="280"
       width="25"
       height="25" />
  </g>
  <g
     style="fill:#ffffff;stroke:#000000;stroke-width:0.25;stroke-linecap:round"
     id="g410"
     transform="translate(16.499985,16.5)">
    <rect
       id="rect408"
       y="130"
       x="305"
       width="25"
       height="25" />
  </g>
  <g
     style="fill:#ffffff;stroke:#000000;stroke-width:0.25;stroke-linecap:round"
     id="g414"
     transform="translate(16.499985,16.5)">
    <rect
       id="rect412"
       y="130"
       x="330"
       width="25"
       height="25" />
  </g>
  <g
     style="fill:#ffffff;stroke:#000000;stroke-width:0.25;stroke-linecap:round"
     id="g418"
     transform="translate(16.499985,16.5)">
    <rect
       id="rect416"
       y="130"
       x="380"
       width="25"
       height="25" />
  </g>
  <g
     style="fill:#ffffff;stroke:#000000;stroke-width:0.25;stroke-linecap:round"
     id="g422"
     transform="translate(16.499985,16.5)">
    <rect
       id="rect420"
       y="130"
       x="405"
       width="25"
       height="25" />
  </g>
  <g
     style="fill:#ffffff;stroke:#000000;stroke-width:0.25;stroke-linecap:round"
     id="g426"
     transform="translate(16.499985,16.5)">
    <rect
       id="rect424"
       y="155"
       x="230"
       width="25"
       height="25" />
  </g>
  <g
     style="fill:#ffffff;stroke:#000000;stroke-width:0.25;stroke-linecap:round"
     id="g430"
     transform="translate(16.499985,16.5)">
    <rect
       id="rect428"
       y="155"
       x="255"
       width="25"
       height="25" />
  </g>
  <g
     style="fill:#ffffff;stroke:#000000;stroke-width:0.25;stroke-linecap:round"
     id="g434"
     transform="translate(16.499985,16.5)">
    <rect
       id="rect432"
       y="155"
       x="280"
       width="25"
       height="25" />
  </g>
  <g
     style="fill:#ffffff;stroke:#000000;stroke-width:0.25;stroke-linecap:round"
     id="g438"
     transform="translate(16.499985,16.5)">
    <rect
       id="rect436"
       y="155"
       x="305"
       width="25"
       height="25" />
  </g>
  <g
     style="fill:#ffffff;stroke:#000000;stroke-width:0.25;stroke-linecap:round"
     id="g442"
     transform="translate(16.499985,16.5)">
    <rect
       id="rect440"
       y="155"
       x="405"
       width="25"
       height="25" />
  </g>
  <g
     style="fill:#ffffff;stroke:#000000;stroke-width:0.25;stroke-linecap:round"
     id="g446"
     transform="translate(16.499985,16.5)">
    <rect
       id="rect444"
       y="180"
       x="230"
       width="25"
       height="25" />
  </g>
  <g
     style="fill:#ffffff;stroke:#000000;stroke-width:0.25;stroke-linecap:round"
     id="g450"
     transform="translate(16.499985,16.5)">
    <rect
       id="rect448"
       y="180"
       x="255"
       width="25"
       height="25" />
  </g>
  <g
     style="fill:#ffffff;stroke:#000000;stroke-width:0.25;stroke-linecap:round"
     id="g454"
     transform="translate(16.499985,16.5)">
    <rect
       id="rect452"
       y="180"
       x="280"
       width="25"
       height="25" />
  </g>
  <g
     style="fill:#ffffff;stroke:#000000;stroke-width:0.25;stroke-linecap:round"
     id="g458"
     transform="translate(16.499985,16.5)">
    <rect
       id="rect456"
       y="180"
       x="305"
       width="25"
       height="25" />
  </g>
  <g
     style="fill:#ffffff;stroke:#000000;stroke-width:0.25;stroke-linecap:round"
     id="g462"
     transform="translate(16.499985,16.5)">
    <rect
       id="rect460"
       y="180"
       x="330"
       width="25"
       height="25" />
  </g>
  <g
     style="fill:#ffffff;stroke:#000000;stroke-width:0.25;stroke-linecap:round"
     id="g466"
     transform="translate(16.499985,16.5)">
    <rect
       id="rect464"
       y="180"
       x="380"
       width="25"
       height="25" />
  </g>
  <g
     style="fill:#ffffff;stroke:#000000;stroke-width:0.25;stroke-linecap:round"
     id="g470"
     transform="translate(16.499985,16.5)">
    <rect
       id="rect468"
       y="180"
       x="405"
       width="25"
       height="25" />
  </g>
  <path
     style="stroke:#000000;stroke-width:3;stroke-linecap:round"
     inkscape:connector-curvature="0"
     id="path472"
     d="m 371.49998,146.5 h 25 m -50,25 h 25 m 25,0 h 25 m -75,25 h 25 m 25,0 h 25 m -50,25 h 25 m -25,-75 v 25 m 25,-25 v 25 m -50,0 v 25 m 75,-25 v 25 m -50,0 v 25 m 25,-25 v 25" />
  <g
     id="g710"
     style="stroke:#000000;stroke-width:0.25;stroke-linecap:round"
     transform="translate(16.499985,16.5)">
    <g
       id="g486"
       style="fill:#bb99dd">
      <rect
         height="25"
         width="25"
         x="580"
         y="105"
         id="rect476" />
      <rect
         height="25"
         width="25"
         x="555"
         y="130"
         id="rect478" />
      <rect
         height="25"
         width="25"
         x="580"
         y="130"
         id="rect480" />
      <rect
         height="25"
         width="25"
         x="605"
         y="130"
         id="rect482" />
      <rect
         height="25"
         width="25"
         x="580"
         y="155"
         id="rect484" />
    </g>
    <g
       id="g490"
       style="fill:#ffffff">
      <rect
         height="25"
         width="25"
         x="455"
         y="5"
         id="rect488" />
    </g>
    <g
       id="g494"
       style="fill:#ffffff">
      <rect
         height="25"
         width="25"
         x="480"
         y="5"
         id="rect492" />
    </g>
    <g
       id="g498"
       style="fill:#ffffff">
      <rect
         height="25"
         width="25"
         x="505"
         y="5"
         id="rect496" />
    </g>
    <g
       id="g502"
       style="fill:#ffffff">
      <rect
         height="25"
         width="25"
         x="530"
         y="5"
         id="rect500" />
    </g>
    <g
       id="g506"
       style="fill:#ffffff">
      <rect
         height="25"
         width="25"
         x="555"
         y="5"
         id="rect504" />
    </g>
    <g
       id="g510"
       style="fill:#ffffff">
      <rect
         height="25"
         width="25"
         x="580"
         y="5"
         id="rect508" />
    </g>
    <g
       id="g514"
       style="fill:#ffffff">
      <rect
         height="25"
         width="25"
         x="605"
         y="5"
         id="rect512" />
    </g>
    <g
       id="g518"
       style="fill:#ffffff">
      <rect
         height="25"
         width="25"
         x="630"
         y="5"
         id="rect516" />
    </g>
    <g
       id="g522"
       style="fill:#ffffff">
      <rect
         height="25"
         width="25"
         x="455"
         y="30"
         id="rect520" />
    </g>
    <g
       id="g526"
       style="fill:#ffffff">
      <rect
         height="25"
         width="25"
         x="480"
         y="30"
         id="rect524" />
    </g>
    <g
       id="g530"
       style="fill:#ffffff">
      <rect
         height="25"
         width="25"
         x="505"
         y="30"
         id="rect528" />
    </g>
    <g
       id="g534"
       style="fill:#ffffff">
      <rect
         height="25"
         width="25"
         x="530"
         y="30"
         id="rect532" />
    </g>
    <g
       id="g538"
       style="fill:#ffffff">
      <rect
         height="25"
         width="25"
         x="555"
         y="30"
         id="rect536" />
    </g>
    <g
       id="g542"
       style="fill:#ffffff">
      <rect
         height="25"
         width="25"
         x="580"
         y="30"
         id="rect540" />
    </g>
    <g
       id="g546"
       style="fill:#ffffff">
      <rect
         height="25"
         width="25"
         x="605"
         y="30"
         id="rect544" />
    </g>
    <g
       id="g550"
       style="fill:#ffffff">
      <rect
         height="25"
         width="25"
         x="630"
         y="30"
         id="rect548" />
    </g>
    <g
       id="g554"
       style="fill:#ffffff">
      <rect
         height="25"
         width="25"
         x="455"
         y="55"
         id="rect552" />
    </g>
    <g
       id="g558"
       style="fill:#ffffff">
      <rect
         height="25"
         width="25"
         x="480"
         y="55"
         id="rect556" />
    </g>
    <g
       id="g562"
       style="fill:#ffffff">
      <rect
         height="25"
         width="25"
         x="505"
         y="55"
         id="rect560" />
    </g>
    <g
       id="g566"
       style="fill:#ffffff">
      <rect
         height="25"
         width="25"
         x="530"
         y="55"
         id="rect564" />
    </g>
    <g
       id="g570"
       style="fill:#ffffff">
      <rect
         height="25"
         width="25"
         x="555"
         y="55"
         id="rect568" />
    </g>
    <g
       id="g574"
       style="fill:#ffffff">
      <rect
         height="25"
         width="25"
         x="580"
         y="55"
         id="rect572" />
    </g>
    <g
       id="g578"
       style="fill:#ffffff">
      <rect
         height="25"
         width="25"
         x="605"
         y="55"
         id="rect576" />
    </g>
    <g
       id="g582"
       style="fill:#ffffff">
      <rect
         height="25"
         width="25"
         x="630"
         y="55"
         id="rect580" />
    </g>
    <g
       id="g586"
       style="fill:#ffffff">
      <rect
         height="25"
         width="25"
         x="455"
         y="80"
         id="rect584" />
    </g>
    <g
       id="g590"
       style="fill:#ffffff">
      <rect
         height="25"
         width="25"
         x="480"
         y="80"
         id="rect588" />
    </g>
    <g
       id="g594"
       style="fill:#ffffff">
      <rect
         height="25"
         width="25"
         x="505"
         y="80"
         id="rect592" />
    </g>
    <g
       id="g598"
       style="fill:#ffffff">
      <rect
         height="25"
         width="25"
         x="580"
         y="80"
         id="rect596" />
    </g>
    <g
       id="g602"
       style="fill:#ffffff">
      <rect
         height="25"
         width="25"
         x="605"
         y="80"
         id="rect600" />
    </g>
    <g
       id="g606"
       style="fill:#ffffff">
      <rect
         height="25"
         width="25"
         x="630"
         y="80"
         id="rect604" />
    </g>
    <g
       id="g610"
       style="fill:#ffffff">
      <rect
         height="25"
         width="25"
         x="455"
         y="105"
         id="rect608" />
    </g>
    <g
       id="g614"
       style="fill:#ffffff">
      <rect
         height="25"
         width="25"
         x="480"
         y="105"
         id="rect612" />
    </g>
    <g
       id="g618"
       style="fill:#ffffff">
      <rect
         height="25"
         width="25"
         x="505"
         y="105"
         id="rect616" />
    </g>
    <g
       id="g622"
       style="fill:#ffffff">
      <rect
         height="25"
         width="25"
         x="605"
         y="105"
         id="rect620" />
    </g>
    <g
       id="g626"
       style="fill:#ffffff">
      <rect
         height="25"
         width="25"
         x="630"
         y="105"
         id="rect624" />
    </g>
    <g
       id="g630"
       style="fill:#ffffff">
      <rect
         height="25"
         width="25"
         x="455"
         y="130"
         id="rect628" />
    </g>
    <g
       id="g634"
       style="fill:#ffffff">
      <rect
         height="25"
         width="25"
         x="480"
         y="130"
         id="rect632" />
    </g>
    <g
       id="g638"
       style="fill:#ffffff">
      <rect
         height="25"
         width="25"
         x="505"
         y="130"
         id="rect636" />
    </g>
    <g
       id="g642"
       style="fill:#ffffff">
      <rect
         height="25"
         width="25"
         x="530"
         y="130"
         id="rect640" />
    </g>
    <g
       id="g646"
       style="fill:#ffffff">
      <rect
         height="25"
         width="25"
         x="630"
         y="130"
         id="rect644" />
    </g>
    <g
       id="g650"
       style="fill:#ffffff">
      <rect
         height="25"
         width="25"
         x="455"
         y="155"
         id="rect648" />
    </g>
    <g
       id="g654"
       style="fill:#ffffff">
      <rect
         height="25"
         width="25"
         x="480"
         y="155"
         id="rect652" />
    </g>
    <g
       id="g658"
       style="fill:#ffffff">
      <rect
         height="25"
         width="25"
         x="505"
         y="155"
         id="rect656" />
    </g>
    <g
       id="g662"
       style="fill:#ffffff">
      <rect
         height="25"
         width="25"
         x="530"
         y="155"
         id="rect660" />
    </g>
    <g
       id="g666"
       style="fill:#ffffff">
      <rect
         height="25"
         width="25"
         x="555"
         y="155"
         id="rect664" />
    </g>
    <g
       id="g670"
       style="fill:#ffffff">
      <rect
         height="25"
         width="25"
         x="605"
         y="155"
         id="rect668" />
    </g>
    <g
       id="g674"
       style="fill:#ffffff">
      <rect
         height="25"
         width="25"
         x="630"
         y="155"
         id="rect672" />
    </g>
    <g
       id="g678"
       style="fill:#ffffff">
      <rect
         height="25"
         width="25"
         x="455"
         y="180"
         id="rect676" />
    </g>
    <g
       id="g682"
       style="fill:#ffffff">
      <rect
         height="25"
         width="25"
         x="480"
         y="180"
         id="rect680" />
    </g>
    <g
       id="g686"
       style="fill:#ffffff">
      <rect
         height="25"
         width="25"
         x="505"
         y="180"
         id="rect684" />
    </g>
    <g
       id="g690"
       style="fill:#ffffff">
      <rect
         height="25"
         width="25"
         x="530"
         y="180"
         id="rect688" />
    </g>
    <g
       id="g694"
       style="fill:#ffffff">
      <rect
         height="25"
         width="25"
         x="555"
         y="180"
         id="rect692" />
    </g>
    <g
       id="g698"
       style="fill:#ffffff">
      <rect
         height="25"
         width="25"
         x="580"
         y="180"
         id="rect696" />
    </g>
    <g
       id="g702"
       style="fill:#ffffff">
      <rect
         height="25"
         width="25"
         x="605"
         y="180"
         id="rect700" />
    </g>
    <g
       id="g706"
       style="fill:#ffffff">
      <rect
         height="25"
         width="25"
         x="630"
         y="180"
         id="rect704" />
    </g>
    <path
       d="m 580,105 h 25 m -50,25 h 25 m 25,0 h 25 m -75,25 h 25 m 25,0 h 25 m -50,25 h 25 m -25,-75 v 25 m 25,-25 v 25 m -50,0 v 25 m 75,-25 v 25 m -50,0 v 25 m 25,-25 v 25"
       id="path708"
       inkscape:connector-curvature="0"
       style="stroke-width:3" />
  </g>
  <rect
     id="rect835"
     width="200"
     height="200"
     x="21.5"
     y="21.5"
     style="fill:none;stroke:#000000;stroke-width:3;stroke-linejoin:round;stroke-miterlimit:4;stroke-dasharray:none;stroke-opacity:1" />
  <rect
     id="rect835-9"
     width="200"
     height="200"
     x="246.49997"
     y="21.5"
     style="fill:none;stroke:#000000;stroke-width:3;stroke-linejoin:round;stroke-miterlimit:4;stroke-dasharray:none;stroke-opacity:1" />
  <rect
     id="rect835-97"
     width="200"
     height="200"
     x="471.5"
     y="21.5"
     style="fill:none;stroke:#000000;stroke-width:3;stroke-linejoin:round;stroke-miterlimit:4;stroke-dasharray:none;stroke-opacity:1" />
  <rect
     style="fill:none;stroke:#000000;stroke-width:3;stroke-linejoin:round;stroke-miterlimit:4;stroke-dasharray:none;stroke-opacity:1"
     id="rect5354"
     width="50"
     height="50"
     x="96.499985"
     y="96.5" />
  <rect
     style="fill:none;stroke:#000000;stroke-width:3;stroke-linejoin:round;stroke-miterlimit:4;stroke-dasharray:none;stroke-opacity:1"
     id="rect5354-9"
     width="50"
     height="50"
     x="321.5"
     y="96.5" />
  <rect
     style="fill:none;stroke:#000000;stroke-width:3;stroke-linejoin:round;stroke-miterlimit:4;stroke-dasharray:none;stroke-opacity:1"
     id="rect5354-1"
     width="50"
     height="50"
     x="546.5"
     y="96.5" />
</svg>
