<?xml version="1.0" encoding="utf-8" ?>
<svg baseProfile="full" height="435" version="1.1" width="885" xmlns="http://www.w3.org/2000/svg" xmlns:ev="http://www.w3.org/2001/xml-events" xmlns:xlink="http://www.w3.org/1999/xlink"><defs /><g stroke="black" stroke-linecap="round" stroke-width="0.25"><g fill="#BB99DD"><rect height="25" width="25" x="55" y="5" /><rect height="25" width="25" x="30" y="30" /><rect height="25" width="25" x="55" y="30" /><rect height="25" width="25" x="80" y="30" /><rect height="25" width="25" x="55" y="55" /></g><g fill="#CCCC88"><rect height="25" width="25" x="5" y="5" /><rect height="25" width="25" x="30" y="5" /><rect height="25" width="25" x="5" y="30" /><rect height="25" width="25" x="5" y="55" /><rect height="25" width="25" x="5" y="80" /></g><g fill="#DDBB99"><rect height="25" width="25" x="30" y="55" /><rect height="25" width="25" x="30" y="80" /><rect height="25" width="25" x="55" y="80" /><rect height="25" width="25" x="5" y="105" /><rect height="25" width="25" x="30" y="105" /></g><g fill="#88CCCC"><rect height="25" width="25" x="80" y="5" /><rect height="25" width="25" x="105" y="5" /><rect height="25" width="25" x="105" y="30" /><rect height="25" width="25" x="80" y="55" /><rect height="25" width="25" x="105" y="55" /></g><g fill="#99BBDD"><rect height="25" width="25" x="130" y="5" /><rect height="25" width="25" x="155" y="5" /><rect height="25" width="25" x="180" y="5" /><rect height="25" width="25" x="130" y="30" /><rect height="25" width="25" x="130" y="55" /></g><g fill="#DD99BB"><rect height="25" width="25" x="155" y="30" /><rect height="25" width="25" x="180" y="30" /><rect height="25" width="25" x="155" y="55" /><rect height="25" width="25" x="130" y="80" /><rect height="25" width="25" x="155" y="80" /></g><g fill="#AAEEAA"><rect height="25" width="25" x="180" y="55" /><rect height="25" width="25" x="180" y="80" /><rect height="25" width="25" x="155" y="105" /><rect height="25" width="25" x="180" y="105" /><rect height="25" width="25" x="155" y="130" /></g><g fill="#99DDBB"><rect height="25" width="25" x="180" y="130" /><rect height="25" width="25" x="130" y="155" /><rect height="25" width="25" x="155" y="155" /><rect height="25" width="25" x="180" y="155" /><rect height="25" width="25" x="180" y="180" /></g><g fill="#AAAAEE"><rect height="25" width="25" x="130" y="105" /><rect height="25" width="25" x="105" y="130" /><rect height="25" width="25" x="130" y="130" /><rect height="25" width="25" x="80" y="155" /><rect height="25" width="25" x="105" y="155" /></g><g fill="#EEAAAA"><rect height="25" width="25" x="55" y="180" /><rect height="25" width="25" x="80" y="180" /><rect height="25" width="25" x="105" y="180" /><rect height="25" width="25" x="130" y="180" /><rect height="25" width="25" x="155" y="180" /></g><g fill="#CC88CC"><rect height="25" width="25" x="55" y="105" /><rect height="25" width="25" x="5" y="130" /><rect height="25" width="25" x="30" y="130" /><rect height="25" width="25" x="55" y="130" /><rect height="25" width="25" x="80" y="130" /></g><g fill="#BBDD99"><rect height="25" width="25" x="5" y="155" /><rect height="25" width="25" x="30" y="155" /><rect height="25" width="25" x="55" y="155" /><rect height="25" width="25" x="5" y="180" /><rect height="25" width="25" x="30" y="180" /></g><path d="M 5 5 l 25 0 M 30 5 l 25 0 M 55 5 l 25 0 M 80 5 l 25 0 M 105 5 l 25 0 M 130 5 l 25 0 M 155 5 l 25 0 M 180 5 l 25 0 M 30 30 l 25 0 M 80 30 l 25 0 M 155 30 l 25 0 M 180 30 l 25 0 M 30 55 l 25 0 M 80 55 l 25 0 M 180 55 l 25 0 M 55 80 l 25 0 M 80 80 l 25 0 M 105 80 l 25 0 M 130 80 l 25 0 M 5 105 l 25 0 M 55 105 l 25 0 M 130 105 l 25 0 M 155 105 l 25 0 M 5 130 l 25 0 M 30 130 l 25 0 M 80 130 l 25 0 M 105 130 l 25 0 M 180 130 l 25 0 M 5 155 l 25 0 M 30 155 l 25 0 M 55 155 l 25 0 M 80 155 l 25 0 M 130 155 l 25 0 M 155 155 l 25 0 M 55 180 l 25 0 M 80 180 l 25 0 M 105 180 l 25 0 M 130 180 l 25 0 M 155 180 l 25 0 M 5 205 l 25 0 M 30 205 l 25 0 M 55 205 l 25 0 M 80 205 l 25 0 M 105 205 l 25 0 M 130 205 l 25 0 M 155 205 l 25 0 M 180 205 l 25 0 M 5 5 l 0 25 M 55 5 l 0 25 M 80 5 l 0 25 M 130 5 l 0 25 M 205 5 l 0 25 M 5 30 l 0 25 M 30 30 l 0 25 M 105 30 l 0 25 M 130 30 l 0 25 M 155 30 l 0 25 M 205 30 l 0 25 M 5 55 l 0 25 M 30 55 l 0 25 M 55 55 l 0 25 M 80 55 l 0 25 M 130 55 l 0 25 M 155 55 l 0 25 M 180 55 l 0 25 M 205 55 l 0 25 M 5 80 l 0 25 M 30 80 l 0 25 M 80 80 l 0 25 M 130 80 l 0 25 M 180 80 l 0 25 M 205 80 l 0 25 M 5 105 l 0 25 M 55 105 l 0 25 M 80 105 l 0 25 M 130 105 l 0 25 M 155 105 l 0 25 M 205 105 l 0 25 M 5 130 l 0 25 M 105 130 l 0 25 M 155 130 l 0 25 M 180 130 l 0 25 M 205 130 l 0 25 M 5 155 l 0 25 M 80 155 l 0 25 M 130 155 l 0 25 M 205 155 l 0 25 M 5 180 l 0 25 M 55 180 l 0 25 M 180 180 l 0 25 M 205 180 l 0 25" stroke-width="3" /></g><g stroke="black" stroke-linecap="round" stroke-width="0.25"><g fill="#BB99DD"><rect height="25" width="25" x="255" y="105" /><rect height="25" width="25" x="230" y="130" /><rect height="25" width="25" x="255" y="130" /><rect height="25" width="25" x="280" y="130" /><rect height="25" width="25" x="255" y="155" /></g><g fill="#CCCC88"><rect height="25" width="25" x="230" y="155" /><rect height="25" width="25" x="230" y="180" /><rect height="25" width="25" x="255" y="180" /><rect height="25" width="25" x="280" y="180" /><rect height="25" width="25" x="305" y="180" /></g><g fill="#DDBB99"><rect height="25" width="25" x="305" y="130" /><rect height="25" width="25" x="280" y="155" /><rect height="25" width="25" x="305" y="155" /><rect height="25" width="25" x="330" y="155" /><rect height="25" width="25" x="330" y="180" /></g><g fill="#88CCCC"><rect height="25" width="25" x="230" y="80" /><rect height="25" width="25" x="255" y="80" /><rect height="25" width="25" x="280" y="80" /><rect height="25" width="25" x="230" y="105" /><rect height="25" width="25" x="280" y="105" /></g><g fill="#99BBDD"><rect height="25" width="25" x="230" y="5" /><rect height="25" width="25" x="230" y="30" /><rect height="25" width="25" x="230" y="55" /><rect height="25" width="25" x="255" y="55" /><rect height="25" width="25" x="280" y="55" /></g><g fill="#DD99BB"><rect height="25" width="25" x="255" y="5" /><rect height="25" width="25" x="255" y="30" /><rect height="25" width="25" x="280" y="30" /><rect height="25" width="25" x="305" y="30" /><rect height="25" width="25" x="305" y="55" /></g><g fill="#AAEEAA"><rect height="25" width="25" x="280" y="5" /><rect height="25" width="25" x="305" y="5" /><rect height="25" width="25" x="330" y="5" /><rect height="25" width="25" x="330" y="30" /><rect height="25" width="25" x="355" y="30" /></g><g fill="#99DDBB"><rect height="25" width="25" x="355" y="5" /><rect height="25" width="25" x="380" y="5" /><rect height="25" width="25" x="405" y="5" /><rect height="25" width="25" x="380" y="30" /><rect height="25" width="25" x="380" y="55" /></g><g fill="#AAAAEE"><rect height="25" width="25" x="330" y="55" /><rect height="25" width="25" x="355" y="55" /><rect height="25" width="25" x="355" y="80" /><rect height="25" width="25" x="380" y="80" /><rect height="25" width="25" x="380" y="105" /></g><g fill="#EEAAAA"><rect height="25" width="25" x="405" y="30" /><rect height="25" width="25" x="405" y="55" /><rect height="25" width="25" x="405" y="80" /><rect height="25" width="25" x="405" y="105" /><rect height="25" width="25" x="405" y="130" /></g><g fill="#CC88CC"><rect height="25" width="25" x="355" y="105" /><rect height="25" width="25" x="330" y="130" /><rect height="25" width="25" x="355" y="130" /><rect height="25" width="25" x="355" y="155" /><rect height="25" width="25" x="355" y="180" /></g><g fill="#BBDD99"><rect height="25" width="25" x="380" y="130" /><rect height="25" width="25" x="380" y="155" /><rect height="25" width="25" x="405" y="155" /><rect height="25" width="25" x="380" y="180" /><rect height="25" width="25" x="405" y="180" /></g><path d="M 230 5 l 25 0 M 255 5 l 25 0 M 280 5 l 25 0 M 305 5 l 25 0 M 330 5 l 25 0 M 355 5 l 25 0 M 380 5 l 25 0 M 405 5 l 25 0 M 280 30 l 25 0 M 305 30 l 25 0 M 355 30 l 25 0 M 405 30 l 25 0 M 255 55 l 25 0 M 280 55 l 25 0 M 330 55 l 25 0 M 355 55 l 25 0 M 230 80 l 25 0 M 255 80 l 25 0 M 280 80 l 25 0 M 305 80 l 25 0 M 330 80 l 25 0 M 380 80 l 25 0 M 255 105 l 25 0 M 355 105 l 25 0 M 230 130 l 25 0 M 280 130 l 25 0 M 305 130 l 25 0 M 330 130 l 25 0 M 380 130 l 25 0 M 230 155 l 25 0 M 280 155 l 25 0 M 330 155 l 25 0 M 405 155 l 25 0 M 255 180 l 25 0 M 280 180 l 25 0 M 305 180 l 25 0 M 230 205 l 25 0 M 255 205 l 25 0 M 280 205 l 25 0 M 305 205 l 25 0 M 330 205 l 25 0 M 355 205 l 25 0 M 380 205 l 25 0 M 405 205 l 25 0 M 230 5 l 0 25 M 255 5 l 0 25 M 280 5 l 0 25 M 355 5 l 0 25 M 430 5 l 0 25 M 230 30 l 0 25 M 255 30 l 0 25 M 330 30 l 0 25 M 380 30 l 0 25 M 405 30 l 0 25 M 430 30 l 0 25 M 230 55 l 0 25 M 305 55 l 0 25 M 330 55 l 0 25 M 380 55 l 0 25 M 405 55 l 0 25 M 430 55 l 0 25 M 230 80 l 0 25 M 305 80 l 0 25 M 355 80 l 0 25 M 405 80 l 0 25 M 430 80 l 0 25 M 230 105 l 0 25 M 255 105 l 0 25 M 280 105 l 0 25 M 305 105 l 0 25 M 355 105 l 0 25 M 380 105 l 0 25 M 405 105 l 0 25 M 430 105 l 0 25 M 230 130 l 0 25 M 305 130 l 0 25 M 330 130 l 0 25 M 380 130 l 0 25 M 405 130 l 0 25 M 430 130 l 0 25 M 230 155 l 0 25 M 255 155 l 0 25 M 280 155 l 0 25 M 355 155 l 0 25 M 380 155 l 0 25 M 430 155 l 0 25 M 230 180 l 0 25 M 330 180 l 0 25 M 355 180 l 0 25 M 380 180 l 0 25 M 430 180 l 0 25" stroke-width="3" /></g><g stroke="black" stroke-linecap="round" stroke-width="0.25"><g fill="#BB99DD"><rect height="25" width="25" x="580" y="130" /><rect height="25" width="25" x="555" y="155" /><rect height="25" width="25" x="580" y="155" /><rect height="25" width="25" x="605" y="155" /><rect height="25" width="25" x="580" y="180" /></g><g fill="#CCCC88"><rect height="25" width="25" x="630" y="105" /><rect height="25" width="25" x="630" y="130" /><rect height="25" width="25" x="630" y="155" /><rect height="25" width="25" x="605" y="180" /><rect height="25" width="25" x="630" y="180" /></g><g fill="#DDBB99"><rect height="25" width="25" x="605" y="80" /><rect height="25" width="25" x="630" y="80" /><rect height="25" width="25" x="580" y="105" /><rect height="25" width="25" x="605" y="105" /><rect height="25" width="25" x="605" y="130" /></g><g fill="#88CCCC"><rect height="25" width="25" x="530" y="130" /><rect height="25" width="25" x="555" y="130" /><rect height="25" width="25" x="530" y="155" /><rect height="25" width="25" x="530" y="180" /><rect height="25" width="25" x="555" y="180" /></g><g fill="#99BBDD"><rect height="25" width="25" x="505" y="130" /><rect height="25" width="25" x="505" y="155" /><rect height="25" width="25" x="455" y="180" /><rect height="25" width="25" x="480" y="180" /><rect height="25" width="25" x="505" y="180" /></g><g fill="#DD99BB"><rect height="25" width="25" x="480" y="105" /><rect height="25" width="25" x="505" y="105" /><rect height="25" width="25" x="480" y="130" /><rect height="25" width="25" x="455" y="155" /><rect height="25" width="25" x="480" y="155" /></g><g fill="#AAEEAA"><rect height="25" width="25" x="480" y="55" /><rect height="25" width="25" x="455" y="80" /><rect height="25" width="25" x="480" y="80" /><rect height="25" width="25" x="455" y="105" /><rect height="25" width="25" x="455" y="130" /></g><g fill="#99DDBB"><rect height="25" width="25" x="455" y="5" /><rect height="25" width="25" x="455" y="30" /><rect height="25" width="25" x="480" y="30" /><rect height="25" width="25" x="505" y="30" /><rect height="25" width="25" x="455" y="55" /></g><g fill="#AAAAEE"><rect height="25" width="25" x="530" y="30" /><rect height="25" width="25" x="555" y="30" /><rect height="25" width="25" x="505" y="55" /><rect height="25" width="25" x="530" y="55" /><rect height="25" width="25" x="505" y="80" /></g><g fill="#EEAAAA"><rect height="25" width="25" x="480" y="5" /><rect height="25" width="25" x="505" y="5" /><rect height="25" width="25" x="530" y="5" /><rect height="25" width="25" x="555" y="5" /><rect height="25" width="25" x="580" y="5" /></g><g fill="#CC88CC"><rect height="25" width="25" x="555" y="55" /><rect height="25" width="25" x="580" y="55" /><rect height="25" width="25" x="605" y="55" /><rect height="25" width="25" x="630" y="55" /><rect height="25" width="25" x="580" y="80" /></g><g fill="#BBDD99"><rect height="25" width="25" x="605" y="5" /><rect height="25" width="25" x="630" y="5" /><rect height="25" width="25" x="580" y="30" /><rect height="25" width="25" x="605" y="30" /><rect height="25" width="25" x="630" y="30" /></g><path d="M 455 5 l 25 0 M 480 5 l 25 0 M 505 5 l 25 0 M 530 5 l 25 0 M 555 5 l 25 0 M 580 5 l 25 0 M 605 5 l 25 0 M 630 5 l 25 0 M 480 30 l 25 0 M 505 30 l 25 0 M 530 30 l 25 0 M 555 30 l 25 0 M 580 30 l 25 0 M 480 55 l 25 0 M 505 55 l 25 0 M 555 55 l 25 0 M 580 55 l 25 0 M 605 55 l 25 0 M 630 55 l 25 0 M 455 80 l 25 0 M 530 80 l 25 0 M 555 80 l 25 0 M 605 80 l 25 0 M 630 80 l 25 0 M 480 105 l 25 0 M 505 105 l 25 0 M 580 105 l 25 0 M 630 105 l 25 0 M 505 130 l 25 0 M 530 130 l 25 0 M 555 130 l 25 0 M 580 130 l 25 0 M 455 155 l 25 0 M 555 155 l 25 0 M 605 155 l 25 0 M 455 180 l 25 0 M 480 180 l 25 0 M 555 180 l 25 0 M 605 180 l 25 0 M 455 205 l 25 0 M 480 205 l 25 0 M 505 205 l 25 0 M 530 205 l 25 0 M 555 205 l 25 0 M 580 205 l 25 0 M 605 205 l 25 0 M 630 205 l 25 0 M 455 5 l 0 25 M 480 5 l 0 25 M 605 5 l 0 25 M 655 5 l 0 25 M 455 30 l 0 25 M 530 30 l 0 25 M 580 30 l 0 25 M 655 30 l 0 25 M 455 55 l 0 25 M 480 55 l 0 25 M 505 55 l 0 25 M 555 55 l 0 25 M 655 55 l 0 25 M 455 80 l 0 25 M 505 80 l 0 25 M 530 80 l 0 25 M 580 80 l 0 25 M 605 80 l 0 25 M 655 80 l 0 25 M 455 105 l 0 25 M 480 105 l 0 25 M 530 105 l 0 25 M 580 105 l 0 25 M 630 105 l 0 25 M 655 105 l 0 25 M 455 130 l 0 25 M 480 130 l 0 25 M 505 130 l 0 25 M 530 130 l 0 25 M 580 130 l 0 25 M 605 130 l 0 25 M 630 130 l 0 25 M 655 130 l 0 25 M 455 155 l 0 25 M 505 155 l 0 25 M 530 155 l 0 25 M 555 155 l 0 25 M 630 155 l 0 25 M 655 155 l 0 25 M 455 180 l 0 25 M 530 180 l 0 25 M 580 180 l 0 25 M 605 180 l 0 25 M 655 180 l 0 25" stroke-width="3" /></g><g stroke="black" stroke-linecap="round" stroke-width="0.25"><g fill="#BB99DD"><rect height="25" width="25" x="830" y="30" /><rect height="25" width="25" x="805" y="55" /><rect height="25" width="25" x="830" y="55" /><rect height="25" width="25" x="855" y="55" /><rect height="25" width="25" x="830" y="80" /></g><g fill="#CCCC88"><rect height="25" width="25" x="780" y="5" /><rect height="25" width="25" x="805" y="5" /><rect height="25" width="25" x="830" y="5" /><rect height="25" width="25" x="855" y="5" /><rect height="25" width="25" x="855" y="30" /></g><g fill="#DDBB99"><rect height="25" width="25" x="755" y="5" /><rect height="25" width="25" x="755" y="30" /><rect height="25" width="25" x="780" y="30" /><rect height="25" width="25" x="805" y="30" /><rect height="25" width="25" x="780" y="55" /></g><g fill="#88CCCC"><rect height="25" width="25" x="805" y="80" /><rect height="25" width="25" x="855" y="80" /><rect height="25" width="25" x="805" y="105" /><rect height="25" width="25" x="830" y="105" /><rect height="25" width="25" x="855" y="105" /></g><g fill="#99BBDD"><rect height="25" width="25" x="805" y="130" /><rect height="25" width="25" x="830" y="130" /><rect height="25" width="25" x="855" y="130" /><rect height="25" width="25" x="855" y="155" /><rect height="25" width="25" x="855" y="180" /></g><g fill="#DD99BB"><rect height="25" width="25" x="780" y="130" /><rect height="25" width="25" x="780" y="155" /><rect height="25" width="25" x="805" y="155" /><rect height="25" width="25" x="830" y="155" /><rect height="25" width="25" x="830" y="180" /></g><g fill="#AAEEAA"><rect height="25" width="25" x="730" y="155" /><rect height="25" width="25" x="755" y="155" /><rect height="25" width="25" x="755" y="180" /><rect height="25" width="25" x="780" y="180" /><rect height="25" width="25" x="805" y="180" /></g><g fill="#99DDBB"><rect height="25" width="25" x="705" y="130" /><rect height="25" width="25" x="705" y="155" /><rect height="25" width="25" x="680" y="180" /><rect height="25" width="25" x="705" y="180" /><rect height="25" width="25" x="730" y="180" /></g><g fill="#AAAAEE"><rect height="25" width="25" x="705" y="80" /><rect height="25" width="25" x="705" y="105" /><rect height="25" width="25" x="730" y="105" /><rect height="25" width="25" x="730" y="130" /><rect height="25" width="25" x="755" y="130" /></g><g fill="#EEAAAA"><rect height="25" width="25" x="680" y="55" /><rect height="25" width="25" x="680" y="80" /><rect height="25" width="25" x="680" y="105" /><rect height="25" width="25" x="680" y="130" /><rect height="25" width="25" x="680" y="155" /></g><g fill="#CC88CC"><rect height="25" width="25" x="730" y="5" /><rect height="25" width="25" x="730" y="30" /><rect height="25" width="25" x="730" y="55" /><rect height="25" width="25" x="755" y="55" /><rect height="25" width="25" x="730" y="80" /></g><g fill="#BBDD99"><rect height="25" width="25" x="680" y="5" /><rect height="25" width="25" x="705" y="5" /><rect height="25" width="25" x="680" y="30" /><rect height="25" width="25" x="705" y="30" /><rect height="25" width="25" x="705" y="55" /></g><path d="M 680 5 l 25 0 M 705 5 l 25 0 M 730 5 l 25 0 M 755 5 l 25 0 M 780 5 l 25 0 M 805 5 l 25 0 M 830 5 l 25 0 M 855 5 l 25 0 M 780 30 l 25 0 M 805 30 l 25 0 M 830 30 l 25 0 M 680 55 l 25 0 M 755 55 l 25 0 M 805 55 l 25 0 M 855 55 l 25 0 M 705 80 l 25 0 M 755 80 l 25 0 M 780 80 l 25 0 M 805 80 l 25 0 M 855 80 l 25 0 M 730 105 l 25 0 M 830 105 l 25 0 M 705 130 l 25 0 M 755 130 l 25 0 M 780 130 l 25 0 M 805 130 l 25 0 M 830 130 l 25 0 M 855 130 l 25 0 M 730 155 l 25 0 M 755 155 l 25 0 M 805 155 l 25 0 M 830 155 l 25 0 M 680 180 l 25 0 M 730 180 l 25 0 M 780 180 l 25 0 M 805 180 l 25 0 M 680 205 l 25 0 M 705 205 l 25 0 M 730 205 l 25 0 M 755 205 l 25 0 M 780 205 l 25 0 M 805 205 l 25 0 M 830 205 l 25 0 M 855 205 l 25 0 M 680 5 l 0 25 M 730 5 l 0 25 M 755 5 l 0 25 M 780 5 l 0 25 M 880 5 l 0 25 M 680 30 l 0 25 M 730 30 l 0 25 M 755 30 l 0 25 M 830 30 l 0 25 M 855 30 l 0 25 M 880 30 l 0 25 M 680 55 l 0 25 M 705 55 l 0 25 M 730 55 l 0 25 M 780 55 l 0 25 M 805 55 l 0 25 M 880 55 l 0 25 M 680 80 l 0 25 M 705 80 l 0 25 M 730 80 l 0 25 M 755 80 l 0 25 M 805 80 l 0 25 M 830 80 l 0 25 M 855 80 l 0 25 M 880 80 l 0 25 M 680 105 l 0 25 M 705 105 l 0 25 M 755 105 l 0 25 M 805 105 l 0 25 M 880 105 l 0 25 M 680 130 l 0 25 M 705 130 l 0 25 M 730 130 l 0 25 M 780 130 l 0 25 M 805 130 l 0 25 M 880 130 l 0 25 M 680 155 l 0 25 M 705 155 l 0 25 M 730 155 l 0 25 M 780 155 l 0 25 M 855 155 l 0 25 M 880 155 l 0 25 M 680 180 l 0 25 M 755 180 l 0 25 M 830 180 l 0 25 M 855 180 l 0 25 M 880 180 l 0 25" stroke-width="3" /></g><g stroke="black" stroke-linecap="round" stroke-width="0.25"><g fill="#BB99DD"><rect height="25" width="25" x="130" y="230" /><rect height="25" width="25" x="105" y="255" /><rect height="25" width="25" x="130" y="255" /><rect height="25" width="25" x="155" y="255" /><rect height="25" width="25" x="130" y="280" /></g><g fill="#CCCC88"><rect height="25" width="25" x="155" y="230" /><rect height="25" width="25" x="180" y="230" /><rect height="25" width="25" x="180" y="255" /><rect height="25" width="25" x="180" y="280" /><rect height="25" width="25" x="180" y="305" /></g><g fill="#DDBB99"><rect height="25" width="25" x="155" y="280" /><rect height="25" width="25" x="130" y="305" /><rect height="25" width="25" x="155" y="305" /><rect height="25" width="25" x="155" y="330" /><rect height="25" width="25" x="180" y="330" /></g><g fill="#88CCCC"><rect height="25" width="25" x="80" y="230" /><rect height="25" width="25" x="105" y="230" /><rect height="25" width="25" x="80" y="255" /><rect height="25" width="25" x="80" y="280" /><rect height="25" width="25" x="105" y="280" /></g><g fill="#99BBDD"><rect height="25" width="25" x="5" y="230" /><rect height="25" width="25" x="30" y="230" /><rect height="25" width="25" x="55" y="230" /><rect height="25" width="25" x="55" y="255" /><rect height="25" width="25" x="55" y="280" /></g><g fill="#DD99BB"><rect height="25" width="25" x="5" y="255" /><rect height="25" width="25" x="30" y="255" /><rect height="25" width="25" x="30" y="280" /><rect height="25" width="25" x="30" y="305" /><rect height="25" width="25" x="55" y="305" /></g><g fill="#AAEEAA"><rect height="25" width="25" x="5" y="280" /><rect height="25" width="25" x="5" y="305" /><rect height="25" width="25" x="5" y="330" /><rect height="25" width="25" x="30" y="330" /><rect height="25" width="25" x="30" y="355" /></g><g fill="#99DDBB"><rect height="25" width="25" x="5" y="355" /><rect height="25" width="25" x="5" y="380" /><rect height="25" width="25" x="30" y="380" /><rect height="25" width="25" x="55" y="380" /><rect height="25" width="25" x="5" y="405" /></g><g fill="#AAAAEE"><rect height="25" width="25" x="55" y="330" /><rect height="25" width="25" x="55" y="355" /><rect height="25" width="25" x="80" y="355" /><rect height="25" width="25" x="80" y="380" /><rect height="25" width="25" x="105" y="380" /></g><g fill="#EEAAAA"><rect height="25" width="25" x="30" y="405" /><rect height="25" width="25" x="55" y="405" /><rect height="25" width="25" x="80" y="405" /><rect height="25" width="25" x="105" y="405" /><rect height="25" width="25" x="130" y="405" /></g><g fill="#CC88CC"><rect height="25" width="25" x="130" y="330" /><rect height="25" width="25" x="105" y="355" /><rect height="25" width="25" x="130" y="355" /><rect height="25" width="25" x="155" y="355" /><rect height="25" width="25" x="180" y="355" /></g><g fill="#BBDD99"><rect height="25" width="25" x="130" y="380" /><rect height="25" width="25" x="155" y="380" /><rect height="25" width="25" x="180" y="380" /><rect height="25" width="25" x="155" y="405" /><rect height="25" width="25" x="180" y="405" /></g><path d="M 5 230 l 25 0 M 30 230 l 25 0 M 55 230 l 25 0 M 80 230 l 25 0 M 105 230 l 25 0 M 130 230 l 25 0 M 155 230 l 25 0 M 180 230 l 25 0 M 5 255 l 25 0 M 30 255 l 25 0 M 105 255 l 25 0 M 155 255 l 25 0 M 5 280 l 25 0 M 105 280 l 25 0 M 155 280 l 25 0 M 55 305 l 25 0 M 80 305 l 25 0 M 105 305 l 25 0 M 130 305 l 25 0 M 30 330 l 25 0 M 55 330 l 25 0 M 130 330 l 25 0 M 180 330 l 25 0 M 5 355 l 25 0 M 80 355 l 25 0 M 105 355 l 25 0 M 155 355 l 25 0 M 180 355 l 25 0 M 30 380 l 25 0 M 55 380 l 25 0 M 105 380 l 25 0 M 130 380 l 25 0 M 155 380 l 25 0 M 180 380 l 25 0 M 30 405 l 25 0 M 55 405 l 25 0 M 80 405 l 25 0 M 105 405 l 25 0 M 130 405 l 25 0 M 5 430 l 25 0 M 30 430 l 25 0 M 55 430 l 25 0 M 80 430 l 25 0 M 105 430 l 25 0 M 130 430 l 25 0 M 155 430 l 25 0 M 180 430 l 25 0 M 5 230 l 0 25 M 80 230 l 0 25 M 130 230 l 0 25 M 155 230 l 0 25 M 205 230 l 0 25 M 5 255 l 0 25 M 55 255 l 0 25 M 80 255 l 0 25 M 105 255 l 0 25 M 180 255 l 0 25 M 205 255 l 0 25 M 5 280 l 0 25 M 30 280 l 0 25 M 55 280 l 0 25 M 80 280 l 0 25 M 130 280 l 0 25 M 155 280 l 0 25 M 180 280 l 0 25 M 205 280 l 0 25 M 5 305 l 0 25 M 30 305 l 0 25 M 80 305 l 0 25 M 130 305 l 0 25 M 180 305 l 0 25 M 205 305 l 0 25 M 5 330 l 0 25 M 55 330 l 0 25 M 80 330 l 0 25 M 130 330 l 0 25 M 155 330 l 0 25 M 205 330 l 0 25 M 5 355 l 0 25 M 30 355 l 0 25 M 55 355 l 0 25 M 105 355 l 0 25 M 205 355 l 0 25 M 5 380 l 0 25 M 80 380 l 0 25 M 130 380 l 0 25 M 205 380 l 0 25 M 5 405 l 0 25 M 30 405 l 0 25 M 155 405 l 0 25 M 205 405 l 0 25" stroke-width="3" /></g><g stroke="black" stroke-linecap="round" stroke-width="0.25"><g fill="#BB99DD"><rect height="25" width="25" x="255" y="255" /><rect height="25" width="25" x="230" y="280" /><rect height="25" width="25" x="255" y="280" /><rect height="25" width="25" x="280" y="280" /><rect height="25" width="25" x="255" y="305" /></g><g fill="#CCCC88"><rect height="25" width="25" x="230" y="230" /><rect height="25" width="25" x="255" y="230" /><rect height="25" width="25" x="280" y="230" /><rect height="25" width="25" x="305" y="230" /><rect height="25" width="25" x="230" y="255" /></g><g fill="#DDBB99"><rect height="25" width="25" x="330" y="230" /><rect height="25" width="25" x="280" y="255" /><rect height="25" width="25" x="305" y="255" /><rect height="25" width="25" x="330" y="255" /><rect height="25" width="25" x="305" y="280" /></g><g fill="#88CCCC"><rect height="25" width="25" x="230" y="305" /><rect height="25" width="25" x="280" y="305" /><rect height="25" width="25" x="230" y="330" /><rect height="25" width="25" x="255" y="330" /><rect height="25" width="25" x="280" y="330" /></g><g fill="#99BBDD"><rect height="25" width="25" x="230" y="355" /><rect height="25" width="25" x="255" y="355" /><rect height="25" width="25" x="280" y="355" /><rect height="25" width="25" x="230" y="380" /><rect height="25" width="25" x="230" y="405" /></g><g fill="#DD99BB"><rect height="25" width="25" x="305" y="355" /><rect height="25" width="25" x="255" y="380" /><rect height="25" width="25" x="280" y="380" /><rect height="25" width="25" x="305" y="380" /><rect height="25" width="25" x="255" y="405" /></g><g fill="#AAEEAA"><rect height="25" width="25" x="330" y="380" /><rect height="25" width="25" x="355" y="380" /><rect height="25" width="25" x="280" y="405" /><rect height="25" width="25" x="305" y="405" /><rect height="25" width="25" x="330" y="405" /></g><g fill="#99DDBB"><rect height="25" width="25" x="380" y="355" /><rect height="25" width="25" x="380" y="380" /><rect height="25" width="25" x="355" y="405" /><rect height="25" width="25" x="380" y="405" /><rect height="25" width="25" x="405" y="405" /></g><g fill="#AAAAEE"><rect height="25" width="25" x="380" y="305" /><rect height="25" width="25" x="355" y="330" /><rect height="25" width="25" x="380" y="330" /><rect height="25" width="25" x="330" y="355" /><rect height="25" width="25" x="355" y="355" /></g><g fill="#EEAAAA"><rect height="25" width="25" x="405" y="280" /><rect height="25" width="25" x="405" y="305" /><rect height="25" width="25" x="405" y="330" /><rect height="25" width="25" x="405" y="355" /><rect height="25" width="25" x="405" y="380" /></g><g fill="#CC88CC"><rect height="25" width="25" x="355" y="230" /><rect height="25" width="25" x="355" y="255" /><rect height="25" width="25" x="330" y="280" /><rect height="25" width="25" x="355" y="280" /><rect height="25" width="25" x="355" y="305" /></g><g fill="#BBDD99"><rect height="25" width="25" x="380" y="230" /><rect height="25" width="25" x="405" y="230" /><rect height="25" width="25" x="380" y="255" /><rect height="25" width="25" x="405" y="255" /><rect height="25" width="25" x="380" y="280" /></g><path d="M 230 230 l 25 0 M 255 230 l 25 0 M 280 230 l 25 0 M 305 230 l 25 0 M 330 230 l 25 0 M 355 230 l 25 0 M 380 230 l 25 0 M 405 230 l 25 0 M 255 255 l 25 0 M 280 255 l 25 0 M 305 255 l 25 0 M 230 280 l 25 0 M 280 280 l 25 0 M 330 280 l 25 0 M 405 280 l 25 0 M 230 305 l 25 0 M 280 305 l 25 0 M 305 305 l 25 0 M 330 305 l 25 0 M 380 305 l 25 0 M 255 330 l 25 0 M 355 330 l 25 0 M 230 355 l 25 0 M 255 355 l 25 0 M 280 355 l 25 0 M 305 355 l 25 0 M 330 355 l 25 0 M 380 355 l 25 0 M 255 380 l 25 0 M 280 380 l 25 0 M 330 380 l 25 0 M 355 380 l 25 0 M 280 405 l 25 0 M 305 405 l 25 0 M 355 405 l 25 0 M 405 405 l 25 0 M 230 430 l 25 0 M 255 430 l 25 0 M 280 430 l 25 0 M 305 430 l 25 0 M 330 430 l 25 0 M 355 430 l 25 0 M 380 430 l 25 0 M 405 430 l 25 0 M 230 230 l 0 25 M 330 230 l 0 25 M 355 230 l 0 25 M 380 230 l 0 25 M 430 230 l 0 25 M 230 255 l 0 25 M 255 255 l 0 25 M 280 255 l 0 25 M 355 255 l 0 25 M 380 255 l 0 25 M 430 255 l 0 25 M 230 280 l 0 25 M 305 280 l 0 25 M 330 280 l 0 25 M 380 280 l 0 25 M 405 280 l 0 25 M 430 280 l 0 25 M 230 305 l 0 25 M 255 305 l 0 25 M 280 305 l 0 25 M 305 305 l 0 25 M 355 305 l 0 25 M 380 305 l 0 25 M 405 305 l 0 25 M 430 305 l 0 25 M 230 330 l 0 25 M 305 330 l 0 25 M 355 330 l 0 25 M 405 330 l 0 25 M 430 330 l 0 25 M 230 355 l 0 25 M 305 355 l 0 25 M 330 355 l 0 25 M 380 355 l 0 25 M 405 355 l 0 25 M 430 355 l 0 25 M 230 380 l 0 25 M 255 380 l 0 25 M 330 380 l 0 25 M 380 380 l 0 25 M 405 380 l 0 25 M 430 380 l 0 25 M 230 405 l 0 25 M 255 405 l 0 25 M 280 405 l 0 25 M 355 405 l 0 25 M 430 405 l 0 25" stroke-width="3" /></g><g stroke="black" stroke-linecap="round" stroke-width="0.25"><g fill="#BB99DD"><rect height="25" width="25" x="505" y="355" /><rect height="25" width="25" x="480" y="380" /><rect height="25" width="25" x="505" y="380" /><rect height="25" width="25" x="530" y="380" /><rect height="25" width="25" x="505" y="405" /></g><g fill="#CCCC88"><rect height="25" width="25" x="455" y="330" /><rect height="25" width="25" x="455" y="355" /><rect height="25" width="25" x="455" y="380" /><rect height="25" width="25" x="455" y="405" /><rect height="25" width="25" x="480" y="405" /></g><g fill="#DDBB99"><rect height="25" width="25" x="455" y="305" /><rect height="25" width="25" x="480" y="305" /><rect height="25" width="25" x="480" y="330" /><rect height="25" width="25" x="505" y="330" /><rect height="25" width="25" x="480" y="355" /></g><g fill="#88CCCC"><rect height="25" width="25" x="530" y="355" /><rect height="25" width="25" x="555" y="355" /><rect height="25" width="25" x="555" y="380" /><rect height="25" width="25" x="530" y="405" /><rect height="25" width="25" x="555" y="405" /></g><g fill="#99BBDD"><rect height="25" width="25" x="580" y="355" /><rect height="25" width="25" x="580" y="380" /><rect height="25" width="25" x="580" y="405" /><rect height="25" width="25" x="605" y="405" /><rect height="25" width="25" x="630" y="405" /></g><g fill="#DD99BB"><rect height="25" width="25" x="580" y="330" /><rect height="25" width="25" x="605" y="330" /><rect height="25" width="25" x="605" y="355" /><rect height="25" width="25" x="605" y="380" /><rect height="25" width="25" x="630" y="380" /></g><g fill="#AAEEAA"><rect height="25" width="25" x="605" y="280" /><rect height="25" width="25" x="605" y="305" /><rect height="25" width="25" x="630" y="305" /><rect height="25" width="25" x="630" y="330" /><rect height="25" width="25" x="630" y="355" /></g><g fill="#99DDBB"><rect height="25" width="25" x="630" y="230" /><rect height="25" width="25" x="580" y="255" /><rect height="25" width="25" x="605" y="255" /><rect height="25" width="25" x="630" y="255" /><rect height="25" width="25" x="630" y="280" /></g><g fill="#AAAAEE"><rect height="25" width="25" x="530" y="255" /><rect height="25" width="25" x="555" y="255" /><rect height="25" width="25" x="555" y="280" /><rect height="25" width="25" x="580" y="280" /><rect height="25" width="25" x="580" y="305" /></g><g fill="#EEAAAA"><rect height="25" width="25" x="505" y="230" /><rect height="25" width="25" x="530" y="230" /><rect height="25" width="25" x="555" y="230" /><rect height="25" width="25" x="580" y="230" /><rect height="25" width="25" x="605" y="230" /></g><g fill="#CC88CC"><rect height="25" width="25" x="455" y="280" /><rect height="25" width="25" x="480" y="280" /><rect height="25" width="25" x="505" y="280" /><rect height="25" width="25" x="530" y="280" /><rect height="25" width="25" x="505" y="305" /></g><g fill="#BBDD99"><rect height="25" width="25" x="455" y="230" /><rect height="25" width="25" x="480" y="230" /><rect height="25" width="25" x="455" y="255" /><rect height="25" width="25" x="480" y="255" /><rect height="25" width="25" x="505" y="255" /></g><path d="M 455 230 l 25 0 M 480 230 l 25 0 M 505 230 l 25 0 M 530 230 l 25 0 M 555 230 l 25 0 M 580 230 l 25 0 M 605 230 l 25 0 M 630 230 l 25 0 M 505 255 l 25 0 M 530 255 l 25 0 M 555 255 l 25 0 M 580 255 l 25 0 M 605 255 l 25 0 M 455 280 l 25 0 M 480 280 l 25 0 M 505 280 l 25 0 M 530 280 l 25 0 M 580 280 l 25 0 M 605 280 l 25 0 M 455 305 l 25 0 M 480 305 l 25 0 M 530 305 l 25 0 M 555 305 l 25 0 M 630 305 l 25 0 M 455 330 l 25 0 M 505 330 l 25 0 M 580 330 l 25 0 M 605 330 l 25 0 M 505 355 l 25 0 M 530 355 l 25 0 M 555 355 l 25 0 M 580 355 l 25 0 M 480 380 l 25 0 M 530 380 l 25 0 M 630 380 l 25 0 M 480 405 l 25 0 M 530 405 l 25 0 M 605 405 l 25 0 M 630 405 l 25 0 M 455 430 l 25 0 M 480 430 l 25 0 M 505 430 l 25 0 M 530 430 l 25 0 M 555 430 l 25 0 M 580 430 l 25 0 M 605 430 l 25 0 M 630 430 l 25 0 M 455 230 l 0 25 M 505 230 l 0 25 M 630 230 l 0 25 M 655 230 l 0 25 M 455 255 l 0 25 M 530 255 l 0 25 M 580 255 l 0 25 M 655 255 l 0 25 M 455 280 l 0 25 M 555 280 l 0 25 M 605 280 l 0 25 M 630 280 l 0 25 M 655 280 l 0 25 M 455 305 l 0 25 M 505 305 l 0 25 M 530 305 l 0 25 M 580 305 l 0 25 M 605 305 l 0 25 M 655 305 l 0 25 M 455 330 l 0 25 M 480 330 l 0 25 M 530 330 l 0 25 M 580 330 l 0 25 M 630 330 l 0 25 M 655 330 l 0 25 M 455 355 l 0 25 M 480 355 l 0 25 M 505 355 l 0 25 M 530 355 l 0 25 M 580 355 l 0 25 M 605 355 l 0 25 M 630 355 l 0 25 M 655 355 l 0 25 M 455 380 l 0 25 M 480 380 l 0 25 M 555 380 l 0 25 M 580 380 l 0 25 M 605 380 l 0 25 M 655 380 l 0 25 M 455 405 l 0 25 M 505 405 l 0 25 M 530 405 l 0 25 M 580 405 l 0 25 M 655 405 l 0 25" stroke-width="3" /></g><g stroke="black" stroke-linecap="round" stroke-width="0.25"><g fill="#BB99DD"><rect height="25" width="25" x="830" y="330" /><rect height="25" width="25" x="805" y="355" /><rect height="25" width="25" x="830" y="355" /><rect height="25" width="25" x="855" y="355" /><rect height="25" width="25" x="830" y="380" /></g><g fill="#CCCC88"><rect height="25" width="25" x="855" y="380" /><rect height="25" width="25" x="780" y="405" /><rect height="25" width="25" x="805" y="405" /><rect height="25" width="25" x="830" y="405" /><rect height="25" width="25" x="855" y="405" /></g><g fill="#DDBB99"><rect height="25" width="25" x="780" y="355" /><rect height="25" width="25" x="755" y="380" /><rect height="25" width="25" x="780" y="380" /><rect height="25" width="25" x="805" y="380" /><rect height="25" width="25" x="755" y="405" /></g><g fill="#88CCCC"><rect height="25" width="25" x="805" y="305" /><rect height="25" width="25" x="830" y="305" /><rect height="25" width="25" x="855" y="305" /><rect height="25" width="25" x="805" y="330" /><rect height="25" width="25" x="855" y="330" /></g><g fill="#99BBDD"><rect height="25" width="25" x="855" y="230" /><rect height="25" width="25" x="855" y="255" /><rect height="25" width="25" x="805" y="280" /><rect height="25" width="25" x="830" y="280" /><rect height="25" width="25" x="855" y="280" /></g><g fill="#DD99BB"><rect height="25" width="25" x="830" y="230" /><rect height="25" width="25" x="780" y="255" /><rect height="25" width="25" x="805" y="255" /><rect height="25" width="25" x="830" y="255" /><rect height="25" width="25" x="780" y="280" /></g><g fill="#AAEEAA"><rect height="25" width="25" x="755" y="230" /><rect height="25" width="25" x="780" y="230" /><rect height="25" width="25" x="805" y="230" /><rect height="25" width="25" x="730" y="255" /><rect height="25" width="25" x="755" y="255" /></g><g fill="#99DDBB"><rect height="25" width="25" x="680" y="230" /><rect height="25" width="25" x="705" y="230" /><rect height="25" width="25" x="730" y="230" /><rect height="25" width="25" x="705" y="255" /><rect height="25" width="25" x="705" y="280" /></g><g fill="#AAAAEE"><rect height="25" width="25" x="730" y="280" /><rect height="25" width="25" x="755" y="280" /><rect height="25" width="25" x="705" y="305" /><rect height="25" width="25" x="730" y="305" /><rect height="25" width="25" x="705" y="330" /></g><g fill="#EEAAAA"><rect height="25" width="25" x="680" y="255" /><rect height="25" width="25" x="680" y="280" /><rect height="25" width="25" x="680" y="305" /><rect height="25" width="25" x="680" y="330" /><rect height="25" width="25" x="680" y="355" /></g><g fill="#CC88CC"><rect height="25" width="25" x="730" y="330" /><rect height="25" width="25" x="730" y="355" /><rect height="25" width="25" x="755" y="355" /><rect height="25" width="25" x="730" y="380" /><rect height="25" width="25" x="730" y="405" /></g><g fill="#BBDD99"><rect height="25" width="25" x="705" y="355" /><rect height="25" width="25" x="680" y="380" /><rect height="25" width="25" x="705" y="380" /><rect height="25" width="25" x="680" y="405" /><rect height="25" width="25" x="705" y="405" /></g><path d="M 680 230 l 25 0 M 705 230 l 25 0 M 730 230 l 25 0 M 755 230 l 25 0 M 780 230 l 25 0 M 805 230 l 25 0 M 830 230 l 25 0 M 855 230 l 25 0 M 680 255 l 25 0 M 730 255 l 25 0 M 780 255 l 25 0 M 805 255 l 25 0 M 730 280 l 25 0 M 755 280 l 25 0 M 805 280 l 25 0 M 830 280 l 25 0 M 705 305 l 25 0 M 755 305 l 25 0 M 780 305 l 25 0 M 805 305 l 25 0 M 830 305 l 25 0 M 855 305 l 25 0 M 730 330 l 25 0 M 830 330 l 25 0 M 705 355 l 25 0 M 755 355 l 25 0 M 780 355 l 25 0 M 805 355 l 25 0 M 855 355 l 25 0 M 680 380 l 25 0 M 755 380 l 25 0 M 805 380 l 25 0 M 855 380 l 25 0 M 780 405 l 25 0 M 805 405 l 25 0 M 830 405 l 25 0 M 680 430 l 25 0 M 705 430 l 25 0 M 730 430 l 25 0 M 755 430 l 25 0 M 780 430 l 25 0 M 805 430 l 25 0 M 830 430 l 25 0 M 855 430 l 25 0 M 680 230 l 0 25 M 755 230 l 0 25 M 830 230 l 0 25 M 855 230 l 0 25 M 880 230 l 0 25 M 680 255 l 0 25 M 705 255 l 0 25 M 730 255 l 0 25 M 780 255 l 0 25 M 855 255 l 0 25 M 880 255 l 0 25 M 680 280 l 0 25 M 705 280 l 0 25 M 730 280 l 0 25 M 780 280 l 0 25 M 805 280 l 0 25 M 880 280 l 0 25 M 680 305 l 0 25 M 705 305 l 0 25 M 755 305 l 0 25 M 805 305 l 0 25 M 880 305 l 0 25 M 680 330 l 0 25 M 705 330 l 0 25 M 730 330 l 0 25 M 755 330 l 0 25 M 805 330 l 0 25 M 830 330 l 0 25 M 855 330 l 0 25 M 880 330 l 0 25 M 680 355 l 0 25 M 705 355 l 0 25 M 730 355 l 0 25 M 780 355 l 0 25 M 805 355 l 0 25 M 880 355 l 0 25 M 680 380 l 0 25 M 730 380 l 0 25 M 755 380 l 0 25 M 830 380 l 0 25 M 855 380 l 0 25 M 880 380 l 0 25 M 680 405 l 0 25 M 730 405 l 0 25 M 755 405 l 0 25 M 780 405 l 0 25 M 880 405 l 0 25" stroke-width="3" /></g></svg>